<?xml version="1.0" encoding="utf-8"?>
<!-- Generator: Adobe Illustrator 23.0.3, SVG Export Plug-In . SVG Version: 6.00 Build 0)  -->
<!DOCTYPE svg PUBLIC "-//W3C//DTD SVG 1.1//EN" "http://www.w3.org/Graphics/SVG/1.1/DTD/svg11.dtd" [
	<!ENTITY ns_extend "http://ns.adobe.com/Extensibility/1.0/">
	<!ENTITY ns_ai "http://ns.adobe.com/AdobeIllustrator/10.0/">
	<!ENTITY ns_graphs "http://ns.adobe.com/Graphs/1.0/">
	<!ENTITY ns_vars "http://ns.adobe.com/Variables/1.0/">
	<!ENTITY ns_imrep "http://ns.adobe.com/ImageReplacement/1.0/">
	<!ENTITY ns_sfw "http://ns.adobe.com/SaveForWeb/1.0/">
	<!ENTITY ns_custom "http://ns.adobe.com/GenericCustomNamespace/1.0/">
	<!ENTITY ns_adobe_xpath "http://ns.adobe.com/XPath/1.0/">
]>
<svg version="1.1" id="Layer_1" xmlns:x="&ns_extend;" xmlns:i="&ns_ai;" xmlns:graph="&ns_graphs;"
	 xmlns="http://www.w3.org/2000/svg" xmlns:xlink="http://www.w3.org/1999/xlink" x="0px" y="0px" width="1432.5px"
	 height="923.1px" viewBox="0 0 1432.5 923.1" enable-background="new 0 0 1432.5 923.1" xml:space="preserve">
<metadata><?xpacket begin="﻿" id="W5M0MpCehiHzreSzNTczkc9d"?>
<x:xmpmeta xmlns:x="adobe:ns:meta/" x:xmptk="Adobe XMP Core 5.6-c145 79.163499, 2018/08/13-16:40:22        ">
   <rdf:RDF xmlns:rdf="http://www.w3.org/1999/02/22-rdf-syntax-ns#">
      <rdf:Description rdf:about=""
            xmlns:xmp="http://ns.adobe.com/xap/1.0/"
            xmlns:xmpGImg="http://ns.adobe.com/xap/1.0/g/img/"
            xmlns:xmpTPg="http://ns.adobe.com/xap/1.0/t/pg/"
            xmlns:stDim="http://ns.adobe.com/xap/1.0/sType/Dimensions#"
            xmlns:xmpG="http://ns.adobe.com/xap/1.0/g/"
            xmlns:dc="http://purl.org/dc/elements/1.1/"
            xmlns:xmpMM="http://ns.adobe.com/xap/1.0/mm/"
            xmlns:stRef="http://ns.adobe.com/xap/1.0/sType/ResourceRef#"
            xmlns:stEvt="http://ns.adobe.com/xap/1.0/sType/ResourceEvent#">
         <xmp:CreatorTool>Adobe Illustrator CC 23.0 (Windows)</xmp:CreatorTool>
         <xmp:CreateDate>2021-10-05T19:00:39+03:00</xmp:CreateDate>
         <xmp:MetadataDate>2021-10-05T19:00:39+03:00</xmp:MetadataDate>
         <xmp:ModifyDate>2021-10-05T19:00:39+03:00</xmp:ModifyDate>
         <xmp:Thumbnails>
            <rdf:Alt>
               <rdf:li rdf:parseType="Resource">
                  <xmpGImg:width>100</xmpGImg:width>
                  <xmpGImg:height>256</xmpGImg:height>
                  <xmpGImg:format>JPEG</xmpGImg:format>
                  <xmpGImg:image>/9j/4AAQSkZJRgABAgEASABIAAD/7QAsUGhvdG9zaG9wIDMuMAA4QklNA+0AAAAAABAASAAAAAEA&#xA;AQBIAAAAAQAB/+4ADkFkb2JlAGTAAAAAAf/bAIQABgQEBAUEBgUFBgkGBQYJCwgGBggLDAoKCwoK&#xA;DBAMDAwMDAwQDA4PEA8ODBMTFBQTExwbGxscHx8fHx8fHx8fHwEHBwcNDA0YEBAYGhURFRofHx8f&#xA;Hx8fHx8fHx8fHx8fHx8fHx8fHx8fHx8fHx8fHx8fHx8fHx8fHx8fHx8fHx8f/8AAEQgBAABkAwER&#xA;AAIRAQMRAf/EAaIAAAAHAQEBAQEAAAAAAAAAAAQFAwIGAQAHCAkKCwEAAgIDAQEBAQEAAAAAAAAA&#xA;AQACAwQFBgcICQoLEAACAQMDAgQCBgcDBAIGAnMBAgMRBAAFIRIxQVEGE2EicYEUMpGhBxWxQiPB&#xA;UtHhMxZi8CRygvElQzRTkqKyY3PCNUQnk6OzNhdUZHTD0uIIJoMJChgZhJRFRqS0VtNVKBry4/PE&#xA;1OT0ZXWFlaW1xdXl9WZ2hpamtsbW5vY3R1dnd4eXp7fH1+f3OEhYaHiImKi4yNjo+Ck5SVlpeYmZ&#xA;qbnJ2en5KjpKWmp6ipqqusra6voRAAICAQIDBQUEBQYECAMDbQEAAhEDBCESMUEFURNhIgZxgZEy&#xA;obHwFMHR4SNCFVJicvEzJDRDghaSUyWiY7LCB3PSNeJEgxdUkwgJChgZJjZFGidkdFU38qOzwygp&#xA;0+PzhJSktMTU5PRldYWVpbXF1eX1RlZmdoaWprbG1ub2R1dnd4eXp7fH1+f3OEhYaHiImKi4yNjo&#xA;+DlJWWl5iZmpucnZ6fkqOkpaanqKmqq6ytrq+v/aAAwDAQACEQMRAD8A9U4q7FXYq7FXYq7FXYq7&#xA;FXYqwW18h+bbbSZtIt/NT2+nuZVgEdsTcRQuwKqtw0xk5bGr9fiNKfDxVRupeVPMl95ZsNJbWws8&#xA;NDqk8sIuBelDy4uC0XCJ3FXjA3X4K8eqqtpnl3zlbXyT3nmuS8to5mY2bWdqiyQsSQjuiq/MVFGU&#xA;gf5OKpD/AMrIH+DP8Tcbv9G/XfV/SPoD0vqf1nlx9Ovq09D91y4U9TvTfFXouKuxV2KuxV2KuxV2&#xA;KuxV2KuxV2KuxVS+q2v1f6t6KfVuPH0eI4cfDjSlMVVcVdirsVdirsVdirsVdirsVdirsVdirsVd&#xA;irsVdirsVdirsVdirsVdirsVdirsVdirsVdirsVdirsVdirsVdirsVdirsVdirsVdirsVdirsVdi&#xA;rsVdirsVdirsVdirsVdirsVdirsVdirsVdirsVdirsVdirsVdirsVdirsVdirsVdirsVdirsVdir&#xA;sVdirsVdirsVdirsVdirsVdirsVdirsVdirsVdirsVdirsVdirsVdirsVdirsVdirsVdirsVdirs&#xA;VdirsVdirsVdirsVdirsVdirsVdirsVdirsVdirsVdirsVdirsVdirsVdirsVdirsVdirsVdirsV&#xA;dirsVdirsVdirsVdirsVdirsVdirsVdirsVdirsVdirsVdirsVdirsVdirsVdirsVdirsVdirsVd&#xA;irsVdirsVdirsVdirsVdirsVdirsVdirsVdirsVdirsVdirsVdirsVdirsVdirsVdirsVdirsVdi&#xA;rsVdirsVdirsVdirsVdirsVdirsVdirsVdirsVdirsVdirsVdirsVdirsVdirsVdirsVdirsVdir&#xA;sVdirsVdirsVdirsVdiqyaZIYmkf7IpsNySTQADxJ2GKpc2p3LsUCCJa/wB6iTXHTYj4IwnId6Oa&#xA;HbfFVMXkguEjh1AUO0hu0QUZtlRUUQNz7mp2HbfFVRdYjhkT6xdQPDIeImVWhUeDBnZ1dS3w1U7E&#xA;jFUyililQSROskbfZdSCD8iMVXYq7FXYq7FXYq7FXYq7FUh1O7uruS3hjX0bUynnIxq7hZUgPFVN&#xA;F3m5qxNQV+z3xVU1m8aJ1tI4j6caeo3BuIIEUzLGQpVuNYR069MVSOdoBPcizieCcMtsLgwQqkql&#xA;5QyMFiUulIZNqsN1p8R2VTy3E02j20NyFN769EUbqrwTk13J+FAn81SNq1OKo+IBNTuFHwq8UTgd&#xA;AzBnDt7mnEE/LFUXirsVdirsVdirsVdirsVY7ev6F3NA6sPSEklsyjkSZ3WZGpUAstxEV4+HHtXF&#xA;XPdQXs0F+qukqw8JrSL1hK5Lb/YVJB6JVgjMtPjZfhJOKqFmdKtb6SW1tBDJxURx3Mnpt6hqzkox&#xA;klqeQAohr22NcVV4zdLeCWaQWkDSeoFJIKx8vUcVcI1JZexAY9KUXdVNIZRe3YdVaNLRjTmpR3Z0&#xA;/lO4Sjdxu3y3VR2KuxV2KuxV2KuxV2KuxVLdQtjLqNqRxqsU1FkFY3PKP4WHyrQ9R8qgqoOeG6hm&#xA;DCOZYW+Ga1PJ45KdOMkKSycV8HUcht0HHFUTz1NVW2tbSO3SlecTfCoJrSjpHxJ8QrU7rviql+i0&#xA;tphc3N7N6jgqIIqvyrSoXkJZyQF/ZYUFSAN8VR9lHWWW4CGNHVIoUKlf3cYJBKmhHxO23hTFUXir&#xA;sVdirsVdirsVdirsVU54EmQK1QVPJHU0ZW6VU/5+HTFVH0NRTaO7V18ZogzffG0S0/2OKoG+fVtN&#xA;sZJ0uUuQpHwSRMWHL4VVSrgkciPtVPucVTC2gYMZ5pFmmYUV1BVAnWiKWelepNd/kAAqiMVdirsV&#xA;dirsVdirsVdirsVdiriQoJJoBuSegGKpHqVxcX9nfPaGlvaxl4ZSKiaeOrjjtUKhVaMvVv8AV3VR&#xA;Plr0P0HaLACII0McfLqVRioJpsK0rQbDoNsVRk17bQv6bMWlpX0o1aR6fzcEDNT3pTFW4Ly3nYoj&#xA;ESAVMbqyPTx4OFanvTFVbFXYq7FXYq7FXYq7FVk88UEZklNFHgCST2AAqST2A3OKpVNJe3qtO0Qt&#xA;bSIF4TckIWI3DshD8f8AJ5j4epUnZVVTS9UspppoIZEWK2iRmTkrFSS/NiwLchQA8q/jXFUo8sm5&#xA;s7aWyaUrNIYjHG4AFvH6XHeu+0cPLw3X3OKoppruWyuJLCYrbPKPqvBay3FY1FFkfiAGevx1Jp3W&#xA;mKq9nDZWaQG9M0UsP93JcSP6QqOICn1JYxsaAMxb54qnEcscsayROskbCqupBBHsRiq7FXYq7FXY&#xA;q7FXYqh72KRhFLHx527+oFclVI4MhqwDU2evTFUovrq+dEnuZxYWlQ0bRwm4OxA5FmQqnUFCVHyN&#xA;MVQdxcWN9avbzavMYQGQamnoNBsvxq86QoiErswqPAGuKoPS7w3upzPPcW5dEMN1cgc4JeYTiCFd&#xA;Nv8ARHO540NO+Kp3+k1F5zDfpB1Qem1vG7xK0hYfajEvD4U+LkSdxTwKqLBuZeMDTF2nXnNxQxCO&#xA;KlKKD8as52+I+JFKYqmCqqqFUBVUUVRsAB2GKt4q7FXYq7FXYq7FUqbVtLu3KfW4RaofjJkQeoQa&#xA;0G/2PHx+XVVenGS5a4gja5mJ/dzS8kgjWlB6fKv2l/aQHl3NKUVXNYXrLEhlthFAQ0UYgcKCgovw&#xA;ianw9hTrQ9sVSrVIb20uUv44Ymuri4jpFzPps/7qFQ78Q3wxeq3Ljt4HYFVM4o76GSkUBQGv7pZV&#xA;Ntv7snqqfZV44qjbeAxBmduc0h5SyUpU9AAKmgA2A/jU4qq4q7FXYq7FXYq7FXYq7FXYq7FUu1+F&#xA;5dPIjp6vIJHX7NZqwGv+xlOKo63mSeCOdK8JVV1r1owqK4qvxV2KuxV2KuxV2KuxV2KuxV2KuxVC&#xA;asB+jbh/2okMyezxfvEP0MoxVvS9rGOPtAXgB8RC5jB+kLXFUVirsVdirsVdirsVdirsVdirsVdi&#xA;q2SNJI2jkHJHBVlPQgihGKpZ5buBNp5HqCUxv8bggkvIizPyp3DSkYqmjKGUqehFD36/PFVltAlv&#xA;bxW6FmSFFjVnYsxCigLMdydtycVVMVdirsVdirsVdir/AP/Z</xmpGImg:image>
               </rdf:li>
            </rdf:Alt>
         </xmp:Thumbnails>
         <xmpTPg:MaxPageSize rdf:parseType="Resource">
            <stDim:w>1432.528302</stDim:w>
            <stDim:h>923.094340</stDim:h>
            <stDim:unit>Pixels</stDim:unit>
         </xmpTPg:MaxPageSize>
         <xmpTPg:NPages>1</xmpTPg:NPages>
         <xmpTPg:HasVisibleTransparency>False</xmpTPg:HasVisibleTransparency>
         <xmpTPg:HasVisibleOverprint>False</xmpTPg:HasVisibleOverprint>
         <xmpTPg:PlateNames>
            <rdf:Seq>
               <rdf:li>Cyan</rdf:li>
               <rdf:li>Magenta</rdf:li>
               <rdf:li>Yellow</rdf:li>
               <rdf:li>Black</rdf:li>
            </rdf:Seq>
         </xmpTPg:PlateNames>
         <xmpTPg:SwatchGroups>
            <rdf:Seq>
               <rdf:li rdf:parseType="Resource">
                  <xmpG:groupName>Default Swatch Group</xmpG:groupName>
                  <xmpG:groupType>0</xmpG:groupType>
               </rdf:li>
            </rdf:Seq>
         </xmpTPg:SwatchGroups>
         <dc:format>image/svg+xml</dc:format>
         <xmpMM:DerivedFrom rdf:parseType="Resource">
            <stRef:instanceID>xmp.iid:e403629a-eacc-e84a-bed7-095da47b3d7a</stRef:instanceID>
            <stRef:documentID>xmp.did:e403629a-eacc-e84a-bed7-095da47b3d7a</stRef:documentID>
            <stRef:originalDocumentID>xmp.did:0da78314-b528-2646-aa36-46f92c245760</stRef:originalDocumentID>
         </xmpMM:DerivedFrom>
         <xmpMM:DocumentID>xmp.did:3e90bae2-0247-8342-83ae-c4644275e6b6</xmpMM:DocumentID>
         <xmpMM:InstanceID>xmp.iid:3e90bae2-0247-8342-83ae-c4644275e6b6</xmpMM:InstanceID>
         <xmpMM:OriginalDocumentID>xmp.did:0da78314-b528-2646-aa36-46f92c245760</xmpMM:OriginalDocumentID>
         <xmpMM:History>
            <rdf:Seq>
               <rdf:li rdf:parseType="Resource">
                  <stEvt:action>saved</stEvt:action>
                  <stEvt:instanceID>xmp.iid:0da78314-b528-2646-aa36-46f92c245760</stEvt:instanceID>
                  <stEvt:when>2021-10-05T18:55:14+03:00</stEvt:when>
                  <stEvt:softwareAgent>Adobe Illustrator CC 23.0 (Windows)</stEvt:softwareAgent>
                  <stEvt:changed>/</stEvt:changed>
               </rdf:li>
               <rdf:li rdf:parseType="Resource">
                  <stEvt:action>saved</stEvt:action>
                  <stEvt:instanceID>xmp.iid:3e90bae2-0247-8342-83ae-c4644275e6b6</stEvt:instanceID>
                  <stEvt:when>2021-10-05T19:00:39+03:00</stEvt:when>
                  <stEvt:softwareAgent>Adobe Illustrator CC 23.0 (Windows)</stEvt:softwareAgent>
                  <stEvt:changed>/</stEvt:changed>
               </rdf:li>
            </rdf:Seq>
         </xmpMM:History>
      </rdf:Description>
   </rdf:RDF>
</x:xmpmeta>





















<?xpacket end="w"?>
	</metadata>
<path fill="white" stroke="white" stroke-width="2" stroke-miterlimit="10" d="M347.5-1621"/>
<g>
	<g>
		<path d="M926-1674.3c5.8-8.6-14.9-13.6-16.1-2.1c-0.6,6.2,4.3,11.9,8.6,15.6c2.6,2.2,6.1,3.8,8.5,6.2c3.6,3.6-1.8,3.9-4.5,4.5
			c-2.4,0.6-7.5,1.9-9.5-0.4c-1.3-1.5-3.4,0.7-2.1,2.1c3.2,3.7,10,2,14.1,0.8c2.7-0.8,8.4-2.2,7.1-6.1c-0.6-1.9-3.2-3.2-4.7-4.2
			c-2.7-1.8-5.4-3.7-7.8-5.9c-2.5-2.3-5-5.1-6.1-8.4c-0.9-2.7-0.3-6,2.5-7.5c1.7-0.9,10.3-0.2,7.4,4
			C922.3-1674.2,924.9-1672.7,926-1674.3L926-1674.3z"/>
	</g>
</g>
<g>
	<g>
		<path d="M942-1663.4c2.2-2.4,4.7-7.2-0.4-7.9c-4.3-0.6-8.6,2.8-11,6c-2.5,3.3-4.1,7.7-0.3,10.6c4.6,3.6,11.8,4.6,17.4,4.8
			c1.9,0.1,1.9-2.9,0-3c-2.8-0.1-5.7-0.5-8.4-1.2c-1-0.3-2-0.6-3-1c-2.4-0.9-3.3-1.1-4.4-3.4c-0.9-2.1-0.6-2.6,0.6-4.4
			c0.7-1.1,1.6-2.1,2.6-3c1.1-1,2.5-1.8,3.9-2.2c2.5-0.7,2.3,0.9,0.8,2.6C938.6-1664,940.7-1661.9,942-1663.4L942-1663.4z"/>
	</g>
</g>
<g>
	<g>
		<path d="M951.1-1652.1c2.7-2.2,7.1-6.7,6.5-10.6c-0.5-3.4-4.2-2.8-5.7-0.6c-0.3,0.4-0.2,1.1,0,1.5c0.9,1.6,3.1,1.5,4.7,1.9
			c2.2,0.5,4.5,0.4,2.9,3.3c-0.3,0.6-0.9,0.8-1.1,1.5c-1.2,4.1,5.8,4.2,8.1,4.4c1.9,0.2,1.9-2.8,0-3c-0.6-0.1-4.8-0.2-4.9-0.8
			c0,0.1,1.6-1.9,1.6-1.9c0.5-1,0.6-2.3,0.1-3.3c-0.6-1.1-1.8-1.7-2.9-2.1c-1-0.4-2-0.7-3-1c-0.7-0.2-1.4-0.3-2.1-0.5
			c-1.1-0.4-1.4-0.4-0.8-0.1c0,0.5,0,1,0,1.5c-0.8,1.2-1.2,2.9-2.1,4.1c-1,1.3-2.1,2.4-3.4,3.4
			C947.5-1653.1,949.6-1651,951.1-1652.1L951.1-1652.1z"/>
	</g>
</g>
<g>
	<g>
		<path d="M973.2-1658.4c-0.8-3.7-5.8-2-7.5,0c-2.3,2.5-0.8,5.9,2.4,6.5c2.9,0.6,6.1-1.2,7.4-3.8c1.5-2.9,0.6-6.7-3-7
			c-1.5-0.1-2.1,2.2-0.8,2.8c1,0.5,2.1,0.9,3.2,1.2c1.9,0.5,2.7-2.4,0.8-2.9c-0.9-0.2-1.7-0.5-2.5-0.9c-0.3,0.9-0.5,1.9-0.8,2.8
			c1.5,0.1,0.5,2.5,0,3.1c-0.6,0.8-1.5,1.4-2.5,1.6c-0.6,0.2-2.3,0.2-2.4-0.8c-0.1-1,2.8-2,2.8-1.9
			C970.7-1655.7,973.6-1656.5,973.2-1658.4L973.2-1658.4z"/>
	</g>
</g>
<g>
	<g>
		<path d="M977.9-1659.2c5.5-2.8,11.3-5.8,15.1-10.8c2.2-2.8,3.3-7.2-1.4-7.6c-5-0.5-10.6,4.8-13,8.7c-2.7,4.3-2.4,9.1,1.3,12.7
			c3.3,3.2,8.6,6.7,13.3,4.8c5.1-2,9-8.4,12-12.7c1.5-2.2,7.2-9.6,3-11.9c-3.2-1.8-7.9,3.5-9.4,5.7c-3.1,4.3-6.7,11.9-5.7,17.4
			c1.2,6.5,8.6,10.6,14.2,12.4c1.8,0.6,2.6-2.3,0.8-2.9c-4.9-1.6-12.1-5.4-12.1-11.5c0-3.7,2.3-8.5,4-11.6c1-1.9,2.3-3.6,3.9-5
			c2.4-2,2.2-0.5,1.3,1.7c-1.5,4-5.2,7.6-7.8,10.8c-1.2,1.4-2.5,3.2-4.1,4.2c-3.2,1.9-6,0.2-8.7-1.6c-1.9-1.3-4.1-2.9-4.6-5.2
			c-0.9-3.5,1.7-6.8,4-9c1-0.9,7.1-6.4,7.6-2.2c0.1,0.9-3.1,3.6-3.8,4.1c-3.4,2.9-7.4,4.9-11.3,7
			C974.6-1660.9,976.2-1658.3,977.9-1659.2L977.9-1659.2z"/>
	</g>
</g>
<g>
	<g>
		<path d="M1057.9-1662.1c1.8-6.1-7.3-3.7-9.9-2.5c-4.1,1.8-10.3,6.4-7.7,11.7c2.6,5.3,9.8,3.6,13.6,0.9c4.5-3.1,6.7-8.6,4.1-13.7
			c-0.9-1.7-3.5-0.2-2.6,1.5c1.7,3.2,0.4,6.7-2.2,9c-2.1,1.8-6.1,3.8-8.8,2.3c-4.1-2.2,0.2-6.3,2.5-7.8c1.3-0.8,2.7-1.5,4.2-1.9
			c0.4-0.1,4.3-1.1,4-0.3C1054.5-1661.1,1057.4-1660.3,1057.9-1662.1L1057.9-1662.1z"/>
	</g>
</g>
<g>
	<g>
		<path d="M1068.4-1680.7c0.8-2.9,2.3-5,4.9-6.6c-0.7-0.7-1.4-1.4-2.1-2.1c-5.2,9.2-13.3,17.7-13.7,28.8c-0.2,6.5,4.2,18,12.4,16.5
			c1.9-0.3,1.1-3.2-0.8-2.9c-4.5,0.8-7.6-6.5-8.3-9.9c-1-4.6,0.4-9.5,2.3-13.7c2.9-6.2,7.3-11.5,10.7-17.4c0.7-1.3-0.8-2.9-2.1-2.1
			c-3.2,2-5.2,4.7-6.3,8.4C1065-1679.7,1067.9-1678.9,1068.4-1680.7L1068.4-1680.7z"/>
	</g>
</g>
<g>
	<g>
		<path d="M1075.5-1654.3c1.3-1.5,4.9-4.3,4.1-6.8c-0.7-2.1-3.1-2-4.8-1.4c-5.1,1.8-10.5,9.4-4.6,13.4c5.4,3.6,12.6-2.4,12.6-8.3
			c0-4.8-6.6-7.8-8.9-2.8c-0.4,0.8-0.2,1.5,0.5,2.1c8.8,6.8,18-4.3,23.9-9.8c-0.7-0.7-1.4-1.4-2.1-2.1c-3.8,4.7-13.3,17.7-5.4,22.9
			c8.7,5.7,14.4-13.4,15.6-18.6c0.4-1.7-1.8-2.6-2.7-1.2c-3.1,4.7-6,17,1,20.1c7.8,3.4,10.3-13.1,11.3-17.2c-1-0.1-2-0.3-2.9-0.4
			c0,4.4,2.4,7.7,6.5,9.2c1.8,0.7,2.6-2.2,0.8-2.9c-2.8-1-4.3-3.4-4.3-6.3c0-1.7-2.5-2.1-2.9-0.4c-0.6,2.2-1.1,4.4-1.8,6.6
			c-0.3,1.1-0.7,2.2-1,3.3c-0.8,2.2-0.7,3.9-3.4,4.1c-2.5,0.2-2.4-0.3-3-2.6c-0.3-1.3-0.4-2.6-0.4-3.9c0.1-3,1.2-5.6,2.8-8
			c-0.9-0.4-1.8-0.8-2.7-1.2c-0.6,2.8-1.4,5.5-2.5,8.1c-0.7,1.6-3.9,9-5.8,8.7c-1.4-1.6-2.7-3.3-4.1-4.9c0.1-0.5,0.3-1,0.4-1.5
			c0.2-1.3,1.1-2.8,1.7-4c1.4-2.8,3.2-5.4,5.1-7.9c1.2-1.5-0.7-3.5-2.1-2.1c-4.8,4.5-12.9,14.9-20.2,9.3c0.2,0.7,0.4,1.4,0.5,2.1
			c1.1,0.4,2.2,0.9,3.3,1.3c-0.4,1.1-0.7,2.1-1.1,3.2c-1.2,1-2.5,2-3.7,3c-3.5-2.5-4.3-4.6-2.4-6.2c0.4-0.7,2-1.8,2.6-1.6
			c0.6,0.3-1.7,2.4-1.8,2.6C1072.1-1655,1074.2-1652.9,1075.5-1654.3L1075.5-1654.3z"/>
	</g>
</g>
<g>
	<g>
		<path d="M1120.1-1656c2.1-3.7,5-6.3,9-8c-0.6-0.5-1.3-1-1.9-1.4c0.1,2.9,0.5,14.1,5,14.3c1.4,0.1,1.8-1,2.5-2
			c2-3.2,2.8-8.1,4-11.7c-1,0-1.9,0-2.9,0c1.3,6,5.1,10.3,10.7,12.6c1.8,0.7,2.6-2.2,0.8-2.9c-4.7-1.9-7.6-5.6-8.7-10.5
			c-0.3-1.5-2.4-1.3-2.9,0c-0.4,1.1-2.7,9.9-3.4,9.9c-1.7,0.1-2.2-8.8-2.2-9.7c0-0.9-0.9-1.8-1.9-1.4c-4.7,1.9-8.2,4.9-10.8,9.3
			C1116.5-1655.9,1119.1-1654.4,1120.1-1656L1120.1-1656z"/>
	</g>
</g>
<g>
	<g>
		<path d="M1183.2-1670.4c-8.5,21.1-13.4,43.5-14.6,66.2c-0.1,1.9,2.9,1.9,3,0c1.1-22.5,6-44.5,14.5-65.4
			C1186.8-1671.4,1183.9-1672.2,1183.2-1670.4L1183.2-1670.4z"/>
	</g>
</g>
<g>
	<g>
		<path d="M1164.5-1626.8c-0.4,8.9,1.7,17.3,6.3,24.8c0.6,1,2.5,1,2.7-0.4c2.9-14.5,14.8-23.4,26.2-31.4c1.6-1.1,0.1-3.7-1.5-2.6
			c-12.1,8.4-24.5,18-27.6,33.2c0.9-0.1,1.8-0.2,2.7-0.4c-4.4-7.2-6.3-15-5.9-23.3C1167.6-1628.7,1164.6-1628.7,1164.5-1626.8
			L1164.5-1626.8z"/>
	</g>
</g>
<path fill="none" stroke="white" stroke-miterlimit="10" d="M506.2,238.2c3.5,5.1,13.1,20.6,12,42c-0.2,3.4-2.5,34.5-24,48
	c-15.2,9.5-27,1.7-42,15c-5,4.4-9.7,10.6-13,15c-7.3,9.7-10.2,15.9-18.6,21.6c-1.4,0.9-2.6,1.7-3.8,2.3c0,0-2.2,1.2-4.5,2.1
	c-1.4,0.5-41.1,15.3-75-7c-6-4-13.1-8.7-18-18"/>
<path fill="none" stroke="white" stroke-miterlimit="10" d="M442.2,293.2c-0.2-4.6,0-12.3,4-20c10.3-19.7,33.4-15.6,62-36
	c10.5-7.5,30.7-21.9,31-41c0.3-15.4-12.7-17.5-19-40c-6.7-24.1,4.4-35-3-49c-5-9.5-18.1-19.5-54-21"/>
<path fill="none" stroke="white" stroke-miterlimit="10" d="M463.2,105.2c0.9-16,0-43.5-16-53c-4.5-2.6-6.9-2-37-5
	c-23.9-2.4-25.6-3.1-30-2c-5.7,1.5-21.7,7.5-33,42"/>
<path fill="none" stroke="white" stroke-miterlimit="10" d="M202.2,131.2c7.4-47.9,23.6-65.4,38-72c15.9-7.3,28-0.8,57-13
	c16.6-7,20.7-12.5,33-14c18.4-2.2,34.5,7.1,45,15"/>
<path fill="none" stroke="white" stroke-miterlimit="10" d="M341.2,376.2c-16.6,4.3-44,9.1-77,4c-20.9-3.2-39.4-6.1-54-20
	c-29.6-28.3-18.5-78.8-17-85"/>
<path fill="none" stroke="white" stroke-miterlimit="10" d="M320.2,327.2c-12.7,2-41.3,4.7-73-9c-9.5-4.1-42.9-19.1-62-56
	c-7.7-14.8-10.7-28.6-12-38"/>
<path fill="none" stroke="white" stroke-miterlimit="10" d="M212.2,269.2c-29.2-22.9-41.6-47.5-47-61c-6.3-15.7-18.2-45.3-4-60
	c10.2-10.6,28.6-8.1,35-7"/>
<path fill="none" stroke="white" stroke-miterlimit="10" d="M342.2,329.2c9.5-2.5,23.6-6.7,40-14c20.2-9,19.6-11.9,34-17
	c23.3-8.3,32.7-3.5,51-13c10-5.2,16.9-11.7,21-16"/>
<path fill="none" stroke="white" stroke-miterlimit="10" d="M433.2,294.2c-1.5-6.3-4.5-14-11-17c-13.7-6.2-27.3,15.9-61,29
	c-7.9,3.1-47.5,18.5-73,0c-6.7-4.9-10.7-10.8-13-15"/>
<path fill="none" stroke="white" stroke-miterlimit="10" d="M279.2,298.2c-5.3-1.8-72.8-26.2-88-92c-7.5-32.2,1.1-59.4,6-72
	c4.7-1.7,9.3-3.3,14-5"/>
<path fill="none" stroke="white" stroke-miterlimit="10" d="M244.2,239.2c-4.5-4.6-40.2-42-32-93c1.3-8.4,7.4-46,40-64
	c29.6-16.3,69.8-10.1,100,16"/>
<path fill="none" stroke="white" stroke-miterlimit="10" d="M352.2,98.2c4.1-2.9,16.8-11.1,31-8c20.7,4.6,28.9,29.6,31,36
	c6.2,18.9,0.2,27.3,3,58c1.4,14.6,4,26.4,6,34"/>
<path fill="none" stroke="white" stroke-miterlimit="10" d="M396.2,97.2c3.3-3.7,15.3-16,32-16c25.7,0,46.1,29,45,51
	c-0.7,14.2-10,18.7-25,44c-11.1,18.8-17.4,35.7-21,47"/>
<path fill="none" stroke="white" stroke-miterlimit="10" d="M422.2,277.2c9.7-10,22.3-25.2,33-46c8-15.6,14.9-34.4,12-36
	c-3-1.7-11.3,18.3-34,35c-18.7,13.8-35.8,19.6-52,25c-29.8,9.9-39.3,3.1-61,12c-20.1,8.2-33.3,21.7-41,31"/>
<path fill="none" stroke="white" stroke-miterlimit="10" d="M231.2,222.2c-3.9,4.8-8,11.4-6,17c5.2,14.7,50.1,16,85,9
	c32.1-6.4,45.2-17.6,83-20c11.1-0.7,20.2-0.4,26,0"/>
<path fill="none" stroke="white" stroke-miterlimit="10" d="M279.2,289.2c-18-16.7-36-33.3-54-50"/>
<path fill="none" stroke="white" stroke-miterlimit="10" d="M282.2,151.2c-10.2-9.5-14.7-10.2-17-9c-6.8,3.7-1.7,29.4,7,48
	c5.2,11.1,11,18.6,13,21c15.2,18.7,34.1,27.7,46,32"/>
<path fill="none" stroke="white" stroke-miterlimit="10" d="M265.6,234.3c-1.7-7.9,6-13.9,7.6-22.1c3.6-18.2-5.7-32.6-8-36"/>
<path fill="none" stroke="white" stroke-miterlimit="10" d="M291.2,178.2c-12.5-28-11.5-55.6,3-69c7.5-6.9,16.8-8.5,26-10
	c7.4-1.2,35.6-5.9,57,13c11.3,10,16,22.4,18,30"/>
<path fill="none" stroke="white" stroke-miterlimit="10" d="M344.2,238.2c1.5-12.8,5.4-26.5,14-39c9.8-14.2,17.7-15.3,31-33
	c7.9-10.6,21.1-28.1,15-39c-4.1-7.4-15.3-8.7-21-9"/>
<path fill="none" stroke="white" stroke-miterlimit="10" d="M285.2,186.2c5,3.6,20.9,14,42,12c12.9-1.2,39.3-8.3,43-28
	c2.7-14.4-6.8-31.6-12-31"/>
<path fill="none" stroke="white" stroke-miterlimit="10" d="M350.2,184.2c-15.6,4.5-32-1.4-40-14c-7.5-11.8-5.7-26.2,0-36
	c10.3-17.7,31.6-18,35-18c12.7-0.2,34.8,5,38,21c2.9,14.6-12.1,27.3-13,28"/>
<path fill="none" stroke="white" stroke-miterlimit="10" d="M350.2,184.2c3.7-8.5,4.2-15.5,4-20c-0.1-1.8-0.4-9.4-3-10
	c-2.1-0.5-3.2,4.1-8,6c-5.2,2.1-8.7-1.5-12,0c-2.8,1.3-5.2,6.1-4,21"/>
<path fill="none" stroke="white" stroke-miterlimit="10" d="M362.2,395.2"/>
<path fill="none" stroke="white" stroke-miterlimit="10" d="M389.2,389.2c13.4,55.5,30.6,128.9,50,218c2.8,13,4.5,21,5,23
	c12.9,60.5,30.5,142.6,45,234c6.5,40.9,14.3,95.5,21,161l-18,1c-2.9-24.3-7.3-59.1-13-101c-1.1-7.9-4-32-6.9-50.1
	c-0.5-2.9-3.1-8.9-8.1-11.9c3-6,4-15,3.8-17.9c-1-14.4-1.3-24.2-12.8-79.1c-5.2-24.9-4.5-26.5-10.1-50.8c-7.7-25.1-9.6-35-17.7-91.6
	c-9.6-52-32.2-166.6-39.2-175.6c-1-1-2-4-6-6c2-3,3.6-4.6,3.4-8.8c-0.4-9.2-4-22.8-7.4-34.2c-0.2-0.5-0.6-2.1-1.3-4.4
	c-0.5-1.7-0.7-2.4-1-3.3c-0.2-0.6-0.4-1.4-0.7-2.4"/>
<path fill="none" stroke="white" stroke-miterlimit="10" d="M468.2,621.2c10.2-16.2,30.1-43.2,64-66c36.1-24.2,37.8-24.1,57-27"/>
<path fill="none" stroke="white" stroke-miterlimit="10" d="M446.2,632.2c0.6-11.7,4.2-58.4,42-94c9.4-8.8,45.4-42.8,93-35
	c25.2,4.1,42.6,18.1,51,26"/>
<path fill="none" stroke="white" stroke-miterlimit="10" d="M448.2,641.2c41.5,4.6,63.1-8.8,71.8-15.6
	c8.2-6.4,13.8-13.8,21.2-23.4c14.2-18.3,18.6-35.1,36-51c4.7-4.3,10.4-9.7,19.6-14.3c14.1-7,27.5-7.8,35.4-7.7"/>
<path fill="none" stroke="white" stroke-miterlimit="10" d="M481.2,602.2c2.8-2.9,9.2-8.5,19-11c6.2-1.6,11.5-1.4,15-1"/>
<path fill="none" stroke="white" stroke-miterlimit="10" d="M510.2,572.2c2-4.3,4.6-11.2,5-20c0.2-5.1-0.3-9.5-1-13"/>
<path fill="none" stroke="white" stroke-miterlimit="10" d="M538.2,551.2c3.8-1.5,10.5-3.6,19-3c5.5,0.4,9.9,1.8,13,3"/>
<path fill="none" stroke="white" stroke-miterlimit="10" d="M573.2,533.2c1.3-3.7,2.7-7.3,4-11"/>
<path fill="none" stroke="white" stroke-miterlimit="10" d="M335.2,160.2c3.7-6.3-4.2-4.7-3-10c0.2-0.7,0.8-3.1,3-5
	c2.6-2.2,5.8-2.1,8-2c3.7,0.1,10.4,1.5,11,5c0.3,1.6-0.9,3.2-2,4c-2.1,1.5-5.4,1.2-8-1"/>
<path fill="none" stroke="white" stroke-miterlimit="10" d="M400.2,435.2c1,1.4,2.6,4.3,5,6c3.3,2.3,5,3,7,3c0,0-2.5,2.7-4,7
	c-1.1,3.1-2.1,7-2,9"/>
<path fill="none" stroke="white" stroke-miterlimit="10" d="M464.2,724.2c1,1.4,2.6,4.3,5,6c3.3,2.3,5,3,7,3c0,0-2.5,2.7-4,7
	c-1.1,3.1-2.1,7-2,9"/>
<path fill="none" stroke="white" stroke-miterlimit="10" d="M386.2,625.2c10-16,19.3-51.5,16-80c-0.9-8-5.9-82.8-29-85
	c-21.3-2-25.6,59.6-82,97c-39.8,26.4-76.7,27.3-88,51c-11,23,10.3,48.7,29,44c20-5.1,23.1-17.3,54-23c22.4-4.1,31.4,2.4,68,1
	c19.6-0.7,30-4,31-4c6.7,0-11.4-22.2-84-65"/>
<path fill="none" stroke="white" stroke-miterlimit="10" d="M344.2,588.2c2.9-6.1,6-14.2,8-24c1.4-6.7,1.9-12.8,2-18"/>
<path fill="none" stroke="white" stroke-miterlimit="10" d="M358.2,597.2c-9.9-1.4-24.2-2.2-41,1c-11.4,2.2-20.8,5.7-28,9"/>
<path fill="none" stroke="white" stroke-miterlimit="10" d="M357.2,473.2c-13.2,16.4-25.9,27.2-35,34c-13.7,10.2-21.5,13-36,26
	c-9.9,8.9-11.7,12.4-22,23c-8.5,8.7-21.3,20.6-39,33"/>
<path fill="none" stroke="white" stroke-miterlimit="10" d="M389.2,620.2c5.8,4.1,11.8,8.8,18,14c9.6,8.2,17.9,16.3,25,24"/>
<path fill="none" stroke="white" stroke-miterlimit="10" d="M385.2,626.2c7.3,5.2,15.1,11.2,23,18c9.9,8.5,18.6,17,26,25"/>
<path fill="none" stroke="white" stroke-miterlimit="10" d="M423.2,688.2c5.6,13.5,10.9,31.2,3,40c-10.8,12-34.1-5.8-71-7
	c-54.6-1.8-71.9,34.7-140,45c-28.1,4.2-51.4,2-65,0"/>
<path fill="none" stroke="white" stroke-miterlimit="10" d="M327.2,630.2c-44.4,6-69.4,22.4-84,36c-14.9,13.9-19,25-36,46
	c-22.6,27.9-46.2,46.5-63,58"/>
<path fill="none" stroke="white" stroke-miterlimit="10" d="M420.2,684.2c-1.6,0.1-4,0.2-7,0c-9-0.6-15.6-3.5-17.3-4.2
	c-8.9-3.7-20.8-3.7-37.7-3.8c-16.5,0-39.1-0.1-64,11c-23.2,10.4-38.7,26.1-48,38"/>
<path fill="none" stroke="white" stroke-miterlimit="10" d="M369.2,706.2c2-3.7,5.6-9.6,12-15c7.3-6.2,14.7-8.8,19-10"/>
<path fill="none" stroke="white" stroke-miterlimit="10" d="M344.2,676.2c-4.7,2.1-10.2,4.9-16,9c-4.8,3.4-8.8,6.9-12,10"/>
<path fill="none" stroke="white" stroke-miterlimit="10" d="M317.2,679.2c-5.2-3.1-14.5-7.9-27-9c-7.2-0.7-13.4,0.1-18,1"/>
<path fill="none" stroke="white" stroke-miterlimit="10" d="M266.2,704.2c-3.7,0-7.3,0-11,0"/>
<path fill="none" stroke="white" stroke-miterlimit="10" d="M375.2,677.2c-5.5-4.8-12.4-10.1-21-15c-11.6-6.7-22.4-10.6-31-13"/>
<path fill="none" stroke="white" stroke-miterlimit="10" d="M420.2,677.2c-3.2-7.4-8.1-17-16-27c-8.4-10.7-17.2-18.1-24-23"/>
<path fill="none" stroke="white" stroke-miterlimit="10" d="M432.2,674.2c-5,1.3-10,2.7-15,4"/>
<path fill="none" stroke="white" stroke-miterlimit="10" d="M436.2,685.2c-5.3,1-10.7,2-16,3"/>
<path fill="none" stroke="white" stroke-miterlimit="10" d="M468.2,728.2c54.7,19.7,82.6,14.3,98,3c21.7-15.8,27.9-28.7,57-78
	c13.9-23.6,28-41.4,38-53"/>
<path fill="none" stroke="white" stroke-miterlimit="10" d="M557.2,578.2c21-5.4,39.1,0.5,48,4c18.2,7.1,31.3,16.8,56,18
	c2.6,0.1,4.7,0.1,6,0"/>
<path fill="none" stroke="white" stroke-miterlimit="10" d="M463.2,687.2c5.4,0.2,12.9,0.2,21.7-1c7.2-1,21-3.5,39.3-12
	c28.4-13.2,31.8-24.2,61-38c9.6-4.5,17.8-7.4,23-9"/>
<path fill="none" stroke="white" stroke-miterlimit="10" d="M485.2,686.2c9.4,8.3,22.3,17.6,39,25c5.6,2.5,10.9,4.4,16,6"/>
<path fill="none" stroke="white" stroke-miterlimit="10" d="M517.2,677.2c0.2-5.2,1-12.6,4-21c3.2-9.1,7.7-15.7,11-20"/>
<path fill="none" stroke="white" stroke-miterlimit="10" d="M538.2,667.2c5.6,2.9,13.8,6.3,24,8c6.9,1.2,13.1,1.3,18,1"/>
<path fill="none" stroke="white" stroke-miterlimit="10" d="M422.2,534.2c1,1.4,2.6,4.3,5,6c3.3,2.3,5,3,7,3c0,0-2.5,2.7-4,7
	c-1.1,3.1-2.1,7-2,9"/>
<path fill="none" stroke="white" stroke-miterlimit="10" d="M649,942c1,1.4,5,8,7,11c2.3,3.4,5,3,7,3c0,0-5.5,2.7-7,7
	c-1.1,3.1-4.1,8-4,10"/>
</svg>
