<?xml version="1.0" encoding="utf-8"?>
<!-- Generator: Adobe Illustrator 27.5.0, SVG Export Plug-In . SVG Version: 6.00 Build 0)  -->
<svg version="1.1" id="Layer_1" xmlns="http://www.w3.org/2000/svg" xmlns:xlink="http://www.w3.org/1999/xlink" x="0px" y="0px"
	 viewBox="0 0 1432.5 923.1" style="enable-background:new 0 0 1432.5 923.1;" xml:space="preserve">
<style type="text/css">
	.st0{fill:#FFFFFF;stroke:#FFFFFF;stroke-width:2;stroke-miterlimit:10;}
	.st1{fill:none;stroke:#FFFFFF;stroke-width:2.5;stroke-miterlimit:1;}
	.st2{fill:none;}
	.st3{font-family:'ForteMT';}
	.st4{font-size:57px;}
</style>
<path class="st0" d="M347.5-1621"/>
<g>
	<g>
		<path d="M926-1674.3c5.8-8.6-14.9-13.6-16.1-2.1c-0.6,6.2,4.3,11.9,8.6,15.6c2.6,2.2,6.1,3.8,8.5,6.2c3.6,3.6-1.8,3.9-4.5,4.5
			c-2.4,0.6-7.5,1.9-9.5-0.4c-1.3-1.5-3.4,0.7-2.1,2.1c3.2,3.7,10,2,14.1,0.8c2.7-0.8,8.4-2.2,7.1-6.1c-0.6-1.9-3.2-3.2-4.7-4.2
			c-2.7-1.8-5.4-3.7-7.8-5.9c-2.5-2.3-5-5.1-6.1-8.4c-0.9-2.7-0.3-6,2.5-7.5c1.7-0.9,10.3-0.2,7.4,4
			C922.3-1674.2,924.9-1672.7,926-1674.3L926-1674.3z"/>
	</g>
</g>
<g>
	<g>
		<path d="M942-1663.4c2.2-2.4,4.7-7.2-0.4-7.9c-4.3-0.6-8.6,2.8-11,6c-2.5,3.3-4.1,7.7-0.3,10.6c4.6,3.6,11.8,4.6,17.4,4.8
			c1.9,0.1,1.9-2.9,0-3c-2.8-0.1-5.7-0.5-8.4-1.2c-1-0.3-2-0.6-3-1c-2.4-0.9-3.3-1.1-4.4-3.4c-0.9-2.1-0.6-2.6,0.6-4.4
			c0.7-1.1,1.6-2.1,2.6-3c1.1-1,2.5-1.8,3.9-2.2c2.5-0.7,2.3,0.9,0.8,2.6C938.6-1664,940.7-1661.9,942-1663.4L942-1663.4z"/>
	</g>
</g>
<g>
	<g>
		<path d="M951.1-1652.1c2.7-2.2,7.1-6.7,6.5-10.6c-0.5-3.4-4.2-2.8-5.7-0.6c-0.3,0.4-0.2,1.1,0,1.5c0.9,1.6,3.1,1.5,4.7,1.9
			c2.2,0.5,4.5,0.4,2.9,3.3c-0.3,0.6-0.9,0.8-1.1,1.5c-1.2,4.1,5.8,4.2,8.1,4.4c1.9,0.2,1.9-2.8,0-3c-0.6-0.1-4.8-0.2-4.9-0.8
			c0,0.1,1.6-1.9,1.6-1.9c0.5-1,0.6-2.3,0.1-3.3c-0.6-1.1-1.8-1.7-2.9-2.1c-1-0.4-2-0.7-3-1c-0.7-0.2-1.4-0.3-2.1-0.5
			c-1.1-0.4-1.4-0.4-0.8-0.1c0,0.5,0,1,0,1.5c-0.8,1.2-1.2,2.9-2.1,4.1c-1,1.3-2.1,2.4-3.4,3.4
			C947.5-1653.1,949.6-1651,951.1-1652.1L951.1-1652.1z"/>
	</g>
</g>
<g>
	<g>
		<path d="M973.2-1658.4c-0.8-3.7-5.8-2-7.5,0c-2.3,2.5-0.8,5.9,2.4,6.5c2.9,0.6,6.1-1.2,7.4-3.8c1.5-2.9,0.6-6.7-3-7
			c-1.5-0.1-2.1,2.2-0.8,2.8c1,0.5,2.1,0.9,3.2,1.2c1.9,0.5,2.7-2.4,0.8-2.9c-0.9-0.2-1.7-0.5-2.5-0.9c-0.3,0.9-0.5,1.9-0.8,2.8
			c1.5,0.1,0.5,2.5,0,3.1c-0.6,0.8-1.5,1.4-2.5,1.6c-0.6,0.2-2.3,0.2-2.4-0.8c-0.1-1,2.8-2,2.8-1.9
			C970.7-1655.7,973.6-1656.5,973.2-1658.4L973.2-1658.4z"/>
	</g>
</g>
<g>
	<g>
		<path d="M977.9-1659.2c5.5-2.8,11.3-5.8,15.1-10.8c2.2-2.8,3.3-7.2-1.4-7.6c-5-0.5-10.6,4.8-13,8.7c-2.7,4.3-2.4,9.1,1.3,12.7
			c3.3,3.2,8.6,6.7,13.3,4.8c5.1-2,9-8.4,12-12.7c1.5-2.2,7.2-9.6,3-11.9c-3.2-1.8-7.9,3.5-9.4,5.7c-3.1,4.3-6.7,11.9-5.7,17.4
			c1.2,6.5,8.6,10.6,14.2,12.4c1.8,0.6,2.6-2.3,0.8-2.9c-4.9-1.6-12.1-5.4-12.1-11.5c0-3.7,2.3-8.5,4-11.6c1-1.9,2.3-3.6,3.9-5
			c2.4-2,2.2-0.5,1.3,1.7c-1.5,4-5.2,7.6-7.8,10.8c-1.2,1.4-2.5,3.2-4.1,4.2c-3.2,1.9-6,0.2-8.7-1.6c-1.9-1.3-4.1-2.9-4.6-5.2
			c-0.9-3.5,1.7-6.8,4-9c1-0.9,7.1-6.4,7.6-2.2c0.1,0.9-3.1,3.6-3.8,4.1c-3.4,2.9-7.4,4.9-11.3,7
			C974.6-1660.9,976.2-1658.3,977.9-1659.2L977.9-1659.2z"/>
	</g>
</g>
<g>
	<g>
		<path d="M1057.9-1662.1c1.8-6.1-7.3-3.7-9.9-2.5c-4.1,1.8-10.3,6.4-7.7,11.7c2.6,5.3,9.8,3.6,13.6,0.9c4.5-3.1,6.7-8.6,4.1-13.7
			c-0.9-1.7-3.5-0.2-2.6,1.5c1.7,3.2,0.4,6.7-2.2,9c-2.1,1.8-6.1,3.8-8.8,2.3c-4.1-2.2,0.2-6.3,2.5-7.8c1.3-0.8,2.7-1.5,4.2-1.9
			c0.4-0.1,4.3-1.1,4-0.3C1054.5-1661.1,1057.4-1660.3,1057.9-1662.1L1057.9-1662.1z"/>
	</g>
</g>
<g>
	<g>
		<path d="M1068.4-1680.7c0.8-2.9,2.3-5,4.9-6.6c-0.7-0.7-1.4-1.4-2.1-2.1c-5.2,9.2-13.3,17.7-13.7,28.8c-0.2,6.5,4.2,18,12.4,16.5
			c1.9-0.3,1.1-3.2-0.8-2.9c-4.5,0.8-7.6-6.5-8.3-9.9c-1-4.6,0.4-9.5,2.3-13.7c2.9-6.2,7.3-11.5,10.7-17.4c0.7-1.3-0.8-2.9-2.1-2.1
			c-3.2,2-5.2,4.7-6.3,8.4C1065-1679.7,1067.9-1678.9,1068.4-1680.7L1068.4-1680.7z"/>
	</g>
</g>
<g>
	<g>
		<path d="M1075.5-1654.3c1.3-1.5,4.9-4.3,4.1-6.8c-0.7-2.1-3.1-2-4.8-1.4c-5.1,1.8-10.5,9.4-4.6,13.4c5.4,3.6,12.6-2.4,12.6-8.3
			c0-4.8-6.6-7.8-8.9-2.8c-0.4,0.8-0.2,1.5,0.5,2.1c8.8,6.8,18-4.3,23.9-9.8c-0.7-0.7-1.4-1.4-2.1-2.1c-3.8,4.7-13.3,17.7-5.4,22.9
			c8.7,5.7,14.4-13.4,15.6-18.6c0.4-1.7-1.8-2.6-2.7-1.2c-3.1,4.7-6,17,1,20.1c7.8,3.4,10.3-13.1,11.3-17.2c-1-0.1-2-0.3-2.9-0.4
			c0,4.4,2.4,7.7,6.5,9.2c1.8,0.7,2.6-2.2,0.8-2.9c-2.8-1-4.3-3.4-4.3-6.3c0-1.7-2.5-2.1-2.9-0.4c-0.6,2.2-1.1,4.4-1.8,6.6
			c-0.3,1.1-0.7,2.2-1,3.3c-0.8,2.2-0.7,3.9-3.4,4.1c-2.5,0.2-2.4-0.3-3-2.6c-0.3-1.3-0.4-2.6-0.4-3.9c0.1-3,1.2-5.6,2.8-8
			c-0.9-0.4-1.8-0.8-2.7-1.2c-0.6,2.8-1.4,5.5-2.5,8.1c-0.7,1.6-3.9,9-5.8,8.7c-1.4-1.6-2.7-3.3-4.1-4.9c0.1-0.5,0.3-1,0.4-1.5
			c0.2-1.3,1.1-2.8,1.7-4c1.4-2.8,3.2-5.4,5.1-7.9c1.2-1.5-0.7-3.5-2.1-2.1c-4.8,4.5-12.9,14.9-20.2,9.3c0.2,0.7,0.4,1.4,0.5,2.1
			c1.1,0.4,2.2,0.9,3.3,1.3c-0.4,1.1-0.7,2.1-1.1,3.2c-1.2,1-2.5,2-3.7,3c-3.5-2.5-4.3-4.6-2.4-6.2c0.4-0.7,2-1.8,2.6-1.6
			c0.6,0.3-1.7,2.4-1.8,2.6C1072.1-1655,1074.2-1652.9,1075.5-1654.3L1075.5-1654.3z"/>
	</g>
</g>
<g>
	<g>
		<path d="M1120.1-1656c2.1-3.7,5-6.3,9-8c-0.6-0.5-1.3-1-1.9-1.4c0.1,2.9,0.5,14.1,5,14.3c1.4,0.1,1.8-1,2.5-2
			c2-3.2,2.8-8.1,4-11.7c-1,0-1.9,0-2.9,0c1.3,6,5.1,10.3,10.7,12.6c1.8,0.7,2.6-2.2,0.8-2.9c-4.7-1.9-7.6-5.6-8.7-10.5
			c-0.3-1.5-2.4-1.3-2.9,0c-0.4,1.1-2.7,9.9-3.4,9.9c-1.7,0.1-2.2-8.8-2.2-9.7c0-0.9-0.9-1.8-1.9-1.4c-4.7,1.9-8.2,4.9-10.8,9.3
			C1116.5-1655.9,1119.1-1654.4,1120.1-1656L1120.1-1656z"/>
	</g>
</g>
<g>
	<g>
		<path d="M1183.2-1670.4c-8.5,21.1-13.4,43.5-14.6,66.2c-0.1,1.9,2.9,1.9,3,0c1.1-22.5,6-44.5,14.5-65.4
			C1186.8-1671.4,1183.9-1672.2,1183.2-1670.4L1183.2-1670.4z"/>
	</g>
</g>
<g>
	<g>
		<path d="M1164.5-1626.8c-0.4,8.9,1.7,17.3,6.3,24.8c0.6,1,2.5,1,2.7-0.4c2.9-14.5,14.8-23.4,26.2-31.4c1.6-1.1,0.1-3.7-1.5-2.6
			c-12.1,8.4-24.5,18-27.6,33.2c0.9-0.1,1.8-0.2,2.7-0.4c-4.4-7.2-6.3-15-5.9-23.3C1167.6-1628.7,1164.6-1628.7,1164.5-1626.8
			L1164.5-1626.8z"/>
	</g>
</g>
<g>
	<g>
		<path d="M1494.2,443c1.9,0,1.9-3,0-3S1492.3,443,1494.2,443L1494.2,443z"/>
	</g>
</g>
<g transform="translate(0.000000,616.000000) scale(0.100000,-0.100000)">
	<path class="st1" d="M8776.1,4849.7c-35-22-100-104-143-182c-87-155-126-378-84-473c24-55,54-67,101-43c40,21,94,103,121,185
		c23,69,18,85-21,79c-21-3-24-9-25-55c-3-59-33-136-71-175c-37-39-58-36-77,12c-59,147,61,505,207,624c38,30,39,30,53,11
		c31-43,37-96,28-275c-16-326-7-406,56-469c56-56,120-49,170,20l30,42v-70c0-200-40-416-101-542c-75-154-224-279-355-296
		c-132-18-237,71-265,226c-21,118,25,274,102,344c47,42,80,45,108,9c33-42,41-89,38-231c-1-72,0-133,3-136c15-14,48-15,66-3
		c17,13,19,27,19,138c0,143-16,199-71,247c-41,36-71,46-120,37c-117-22-217-243-184-408c21-107,63-170,142-214c47-26,62-29,133-28
		c99,1,171,27,258,92c158,121,258,320,296,596c16,117,34,508,28,621s-12,135-37,135c-38,0-44-25-50-228c-6-174-9-203-29-247
		c-52-115-104-147-138-82c-15,28-16,58-12,247c7,374,2,419-56,477C8858.1,4872.7,8822.1,4877.7,8776.1,4849.7z"/>
	<path class="st1" d="M9471.1,4658.7c-42-22-80-74-80-111c0-14-13-51-30-81c-36-67-70-203-70-283c0-78,17-132,56-172
		c26-28,39-34,73-34c78,0,120,37,180,157c40,80,77,191,91,274c10,59,16,70,68,124c36,38,58,54,60,45c1-8-18-87-43-175
		c-83-289-72-405,35-405c33,0,48,7,84,40l43,40l5-72c5-82,31-143,75-178c23-18,38-21,85-18c73,5,120,41,161,122c49,97,75,311,37,311
		c-11,0-17-23-26-90c-20-164-69-276-134-310c-113-59-131,59-61,414c44,226,44,241-4,241c-43,0-66-54-100-245c-14-77-23-98-57-143
		c-41-53-86-92-107-92s-10,72,44,298c60,244,62,280,20,308c-33,21-59,11-122-49c-41-39-53-46-53-31c-1,38-38,103-69,118
		C9591.1,4683.7,9514.1,4681.7,9471.1,4658.7z M9628.1,4632.7c23-26,43-83,43-122c0-28-50-70-101-83c-32-9-46-8-74,6
		c-39,18-43,33-19,69c21,32,12,55-21,55c-29,0-30,2-9,41c19,38,87,71,129,64C9593.1,4659.7,9616.1,4646.7,9628.1,4632.7z
		 M9661.1,4424.7c0-35-46-173-86-254c-51-106-110-176-145-171c-81,12-88,178-17,371c18,52,24,58,42,51c45-15,122-15,157-1
		C9655.1,4439.7,9661.1,4440.7,9661.1,4424.7z"/>
	<path class="st1" d="M11626.1,4533.7c-89-22-147-58-230-141c-123-124-209-284-272-508c-31-110-24-106-136-82c-89,19-179,68-247,135
		c-66,65-105,140-119,229c-12,73-19,84-52,79c-22-3-24-8-24-58c0-78,42-158,124-241c101-101,199-148,348-171c69-10,74-12,69-32
		c-20-72-59-318-74-469l-18-177l-56-82c-70-103-99-131-130-126c-38,5-58,59-58,156c0,96,18,191,66,348c43,145,51,189,32,197
		c-23,8-35-4-62-63c-19-41-27-50-32-37c-3,10-20,25-36,33c-81,42-215-42-283-176c-34-68-59-198-52-274c4-49,0-74-25-145
		c-42-119-71-173-113-210c-28-24-40-29-50-21c-47,39-14,244,121,740c48,177,23,280-68,280c-32,0-46-7-81-43c-54-54-101-121-153-221
		l-41-78l1,105c1,93-2,109-20,134c-15,20-31,29-57,31c-56,5-114-54-177-181l-50-102l6,95c12,189-29,361-95,394
		c-122,64-260-67-291-276c-16-108,9-238,46-238c13,0,15,6,10,28c-4,15-9,70-13,123c-5,82-2,108,16,167c24,81,69,145,123,176l37,21
		l24-23c14-13,30-43,36-67c23-92,10-404-30-728c-13-107-10-117,39-117c31,0,38,22,61,191c17,124,26,161,62,245c24,54,57,124,75,154
		c36,62,100,128,111,116c5-4,8-60,7-124c-1-89-8-147-29-242c-16-69-29-138-29-155c-1-26,3-30,30-33c17-2,36,3,42,10
		c6,8,20,56,31,108c45,203,253,541,311,505c22-13,4-130-44-293c-121-410-133-625-41-712c33-31,68-20,126,39c35,37,53,68,77,135
		c18,48,32,94,32,102c0,20,12,17,39-11c17-19,33-25,65-25c47,0,75,23,137,115l34,50l7-50c11-79,37-135,72-156c66-40,120-15,185,85
		c24,37,45,65,47,63s-1-94-6-204c-6-111-7-208-4-217c8-21,47-30,72-17c17,9,21,25,26,123c22,366,25,383,104,533
		c42,79,114,161,132,150c30-18-24-227-82-325c-24-40-42-58-66-66c-17-5-37-15-42-20c-16-16,24-184,57-246c35-65,69-90,131-96
		c44-4,52-1,84,27c39,34,95,135,124,221c11,35,19,48,21,35c24-158,75-217,184-217c105,0,207,99,308,299c34,68,35,73,23,73
		c-5,0-28-33-52-72c-104-175-203-278-267-278c-30,0-61,35-75,85c-13,44-15,185-4,255c7,45,7,45,67,64c158,49,300,220,286,344
		c-7,64-38,92-101,92c-143,0-278-166-341-415c-69-275-159-469-226-490c-43-14-56,12-127,256l-19,66l35,19c80,43,160,182,169,293
		c5,58,2,70-17,94c-17,21-30,27-61,27c-52,0-106-49-165-150l-45-75l6,60c12,117,46,351,64,430l17,79l65,12c305,58,565,285,608,531
		C11899.1,4476.7,11790.1,4575.7,11626.1,4533.7z M11792.1,4479.7c124-139-26-436-296-587c-72-40-184-81-248-90l-46-7l24,88
		c47,178,92,284,172,408C11522.1,4483.7,11709.1,4572.7,11792.1,4479.7z M11931.1,3547.7c29-15,43-81,30-132c-15-58-69-138-122-181
		c-48-39-155-93-166-83c-9,9,34,150,67,222c31,67,88,136,136,166C11911.1,3560.7,11907.1,3560.7,11931.1,3547.7z M10720.1,3481.7
		c26-33,27-75,1-148c-10-31-24-84-31-117c-9-46-26-82-73-151c-34-50-71-98-83-105c-20-13-23-12-34,9c-32,59,8,310,67,419
		c29,53,95,119,118,119C10693.1,3507.7,10709.1,3495.7,10720.1,3481.7z"/>
	<path class="st1" d="M9007.1,3026.7c-73-63-102-190-121-529c-15-260-25-323-65-387c-24-40-34-41-56-7c-14,20-19,64-25,217
		c-4,106-11,224-15,262c-12,129-51,185-127,185c-34,0-46-6-77-39c-39-40-64-96-75-164l-6-39l-35,36c-29,30-42,36-75,36
		c-22,0-49-4-59-10c-18-9-42-64-55-125l-7-30l-19,37c-41,79-121,103-172,52c-62-62-80-354-22-354c13,0,14,7,8,38
		c-22,101,1,252,44,298c25,27,26,27,40,8c27-36,72-228,99-423c8-58,17-114,20-124c7-23,40-40,64-32c26,8,26,35-5,223
		c-29,176-30,212-10,306c14,68,36,106,61,106c23,0,54-108,70-243c9-73,20-140,25-149c23-42,89-28,89,20c0,15-9,79-20,142
		c-23,131-17,222,21,311c20,46,68,99,90,99c20,0,32-62,45-245c7-105,20-224,29-265c28-134,82-196,146-169c67,27,96,145,109,439
		c10,226,19,291,51,393c22,70,78,145,98,133c21-13,23-82,7-229c-28-270-31-346-12-409c20-72,60-108,117-108c56,0,75,13,106,73
		c24,46,28,49,31,27c9-58-6-339-22-405l-16-70h-173c-139,0-184-4-232-18c-169-53-265-155-265-282c0-49,4-60,28-85
		c36-35,98-53,183-52c185,3,368,129,468,322l41,77l77,6c80,5,214,44,217,62c2,19-44,16-101-5c-50-19-183-40-183-29c0,3,11,48,25,102
		c38,149,47,282,43,595c-2,233-6,284-17,292c-22,13-48-5-54-39c-4-16-9-107-13-203l-7-173l-44-82c-50-92-75-110-105-73
		c-23,28-23,84-2,375c13,174,14,229,4,264C9146.1,3058.7,9074.1,3085.7,9007.1,3026.7z M9224.1,1881.7l46-7l-20-49
		c-66-167-218-297-384-327c-122-23-215,23-215,104c0,125,112,237,270,271C8981.1,1886.7,9152.1,1891.7,9224.1,1881.7z"/>
	<path class="st1" d="M9677.1,2912.7c-43-44-74-246-57-372c32-227,149-406,320-491c69-34,82-37,180-40c94-4,116-1,184,22
		c43,14,79,26,81,26s5-115,8-256c6-281,5-276,68-272c35,3,35,4,42,58c16,130,124,394,183,450l25,23v-54c0-30-9-112-20-184
		c-42-277-20-385,77-385c67,0,149,103,208,263l18,47l24-35c28-41,51-55,93-55s66,13,121,67l47,45l7-31c4-18,24-50,44-72
		c57-59,86-55,167,23c35,33,64,57,64,51s11-22,25-37c36-39,97-37,148,5c70,58,145,185,192,326l27,81l44,4c24,2,44,2,44,1
		c0-2-13-24-29-50c-108-176-164-460-111-563c35-69,87-87,155-54c44,20,112,94,155,167c19,31,38,57,42,57c3,0,11-15,18-34
		c17-52,54-81,105-81c53,0,80,23,124,105c47,87,104,241,93,252c-12,12-25-6-47-67c-28-78-103-220-130-245c-57-54-79,13-72,225
		c3,120,12,187,41,335c21,102,39,186,40,187s25-4,53-11c135-36,250-28,353,24c63,32,170,124,170,146c0,31-43,11-98-45
		c-78-81-162-121-254-121c-58,0-205,23-216,34c-2,2,6,47,17,100c25,115,25,112,5,120c-28,11-43-13-75-115l-30-98l-37-6
		c-68-10-137-35-167-59c-31-25-28-50,3-28c74,54,200,84,188,45c-15-50-69-289-81-362c-8-46-15-123-15-172c0-81-3-93-31-141
		c-51-87-97-145-141-177c-65-48-89-40-112,33c-8,25,10,168,34,260c10,41,48,139,84,217c37,78,66,145,66,149c0,16-32,19-79,8
		c-27-6-61-8-75-4c-24,6-27,10-21,35c14,63,22,194,15,228c-18,77-81,104-148,63c-123-75-96-269,46-332c23-10,42-22,42-26
		c0-13-27-96-50-152c-49-126-162-270-210-270c-49,0-52,117-10,336c17,85,28,159,25,164c-3,6-17,10-31,10c-19,0-29-10-46-44l-21-44
		l-28,20c-38,28-115,21-162-15c-56-42-97-133-110-243l-12-95l-51-49c-55-52-95-70-118-51c-21,18-36,91-36,178v78l47,35
		c59,44,128,144,149,218c40,134,14,202-76,202c-61,0-105-30-146-98c-63-104-99-322-74-450c11-62,10-72-10-131
		c-45-135-128-261-171-261c-30,0-33,42-15,224c27,283,20,380-29,392c-42,10-58,0-101-65c-38-56-59-99-116-241c-14-33-15-22-22,158
		l-7,193l69,74c131,143,202,309,202,473c0,106-18,149-72,175c-103,51-207-48-257-244c-23-91-41-265-41-401v-98l-38-19
		c-123-63-263-68-373-14c-169,84-275,269-295,518c-5,63-1,101,16,180c35,159,36,165,12,165
		C9702.1,2927.7,9685.1,2920.7,9677.1,2912.7z M10672.1,2817.7c10-6,25-23,33-39c66-126-25-420-174-566l-40-39v59
		c0,235,53,489,117,565C10635.1,2830.7,10643.1,2832.7,10672.1,2817.7z M11930.1,2456.7c10-11,22-36,25-54c6-30-11-214-20-224
		s-44,34-64,82c-26,60-24,148,3,191C11895.1,2482.7,11904.1,2483.7,11930.1,2456.7z M11216.1,2347.7c15-16,17-31,12-85
		c-6-86-50-174-117-240l-52-50l7,55c17,138,62,286,99,323C11187.1,2372.7,11194.1,2371.7,11216.1,2347.7z M11536.1,2106.7
		c21-22,21-30,10-214l-8-119l-63-64c-34-35-67-61-73-58c-24,15-33,87-22,190c16,147,37,212,84,264
		C11489.1,2132.7,11512.1,2133.7,11536.1,2106.7z"/>
	<path class="st1" d="M9712.1,1978.7c-45-45-53-207-16-322l18-57l-39-47c-55-66-185-168-274-214c-128-67-235-94-375-94
		c-92,0-139,5-204,22c-139,37-213,80-319,188c-87,88-119,108-129,77c-2-6,34-47,81-92c322-309,858-284,1206,58c34,34,63,60,65,58
		c10-10,60-158,85-253c42-158,53-257,48-408c-4-108-10-146-32-210c-50-149-139-255-263-314c-129-62-263-45-356,45
		c-50,48-74,95-86,168c-9,59-1,147,19,199c18,47,69,113,104,134c49,31,89,27,120-9c33-40,40-84,31-178c-15-139-13-155,17-170
		c61-29,88,24,88,169c0,167-55,240-181,241c-221,1-326-385-152-559c165-165,470-110,629,113c56,79,90,155,116,263
		c18,75,20,108,15,256c-6,190-17,248-93,476l-45,136l32,78c27,68,31,88,27,151c-4,88-22,114-80,114
		C9745.1,1997.7,9724.1,1990.7,9712.1,1978.7z M9808.1,1920.7c13-31,14-48,5-93c-6-30-16-68-23-85l-12-30l-7,25c-5,14-8,59-9,100
		C9761.1,1959.7,9778.1,1990.7,9808.1,1920.7z"/>
	<path class="st1" d="M10966.1,1537.7c-21-33,58-192,134-269l53-55l-12-51c-33-140-41-198-41-287c0-97,0-98-40-158
		c-49-73-86-105-105-89c-32,27-27,170,16,389c10,52,15,99,11,103c-5,5-19,7-32,5c-32-4-53-52-79-179c-27-134-83-326-113-392
		c-27-59-86-127-111-127c-49,0-44,106,21,445c49,255,51,297,12,336c-42,42-94,14-160-88l-44-67l-7,90c-8,108-19,141-53,156
		c-56,25-105-35-167-206l-32-91l-12,76c-15,95-20,110-45,137c-30,33-81,30-113-9c-40-47-76-197-49-206c7-3,14,13,18,44
		c11,78,64,181,85,168c16-10,21-170,8-307c-7-79-13-170-13-203c0-60,0-60,31-63c45-4,61,17,68,95c4,37,12,95,17,128
		c28,171,154,457,175,400c11-28-5-241-30-390c-24-150-22-175,19-175c23,0,55,23,55,40c0,5,7,58,16,117c13,88,23,122,56,185
		c22,43,58,98,81,124c40,46,42,46,47,23c8-31-10-142-56-349c-42-193-52-298-32-354c28-83,112-105,173-46c43,42,87,126,115,219l23,73
		l16-48c12-38,24-53,52-68c32-17,40-18,68-6c18,7,51,37,74,68l41,54l16-59c40-144,115-233,198-233c42,0,50,4,93,49
		c33,34,65,86,103,166c31,64,56,120,56,126c0,5,4,9,9,9s11-17,15-38c11-71,71-173,143-245c304-304,814-169,1008,268
		c14,33,42,114,61,180c28,99,32,122,21,132c-29,29-67-23-67-93c0-12-11-61-25-108c-78-269-251-452-486-512c-81-21-202-14-279,15
		c-65,25-159,96-199,151c-41,57-74,185-75,294l-1,89l63,13c35,7,78,22,97,34c112,69,184,250,123,308c-72,67-188,52-270-34
		c-66-69-109-180-127-324c-7-63-21-100-84-230c-96-199-149-256-208-226c-37,18-59,68-70,162c-17,133-1,434,27,528c5,16,13,17,57,12
		c85-11,151,15,218,83c99,101,122,209,59,273c-25,25-35,28-92,28c-41,0-78-7-106-20c-62-28-135-109-178-195c-21-42-42-74-48-72
		s-29,30-51,63c-39,57-52,90-75,182c-9,35-15,42-35,42C10983.1,1547.7,10969.1,1543.7,10966.1,1537.7z M11536.1,1521.7
		c22-9,45-57,45-97c0-83-105-212-194-237c-46-13-110-7-121,10c-9,14,13,85,47,158C11374.1,1484.7,11462.1,1549.7,11536.1,1521.7z
		 M11941.1,1267.7c52-52,29-152-58-240c-56-57-102-80-159-80c-29,0-30,21-4,123c37,144,92,217,162,217
		C11907.1,1287.7,11928.1,1280.7,11941.1,1267.7z"/>
	<path class="st1" d="M10941.1,1232.7c-16-19-5-35,24-35c32,0,56,28,35,41S10955.1,1249.7,10941.1,1232.7z"/>
</g>
<polygon class="st2" points="1495,930.3 728.5,930.3 693.3,596.9 1459.8,596.9 "/>
<text transform="matrix(1 0 0 1 697.5695 637.2769)"><tspan x="0" y="0" class="st3 st4">I like you so much already,</tspan><tspan x="7.2" y="68.4" class="st3 st4">     just as you are.</tspan></text>
</svg>
