<?xml version="1.0" encoding="utf-8"?>
<!-- Generator: Adobe Illustrator 23.0.3, SVG Export Plug-In . SVG Version: 6.00 Build 0)  -->
<!DOCTYPE svg PUBLIC "-//W3C//DTD SVG 1.1//EN" "http://www.w3.org/Graphics/SVG/1.1/DTD/svg11.dtd" [
	<!ENTITY ns_extend "http://ns.adobe.com/Extensibility/1.0/">
	<!ENTITY ns_ai "http://ns.adobe.com/AdobeIllustrator/10.0/">
	<!ENTITY ns_graphs "http://ns.adobe.com/Graphs/1.0/">
	<!ENTITY ns_vars "http://ns.adobe.com/Variables/1.0/">
	<!ENTITY ns_imrep "http://ns.adobe.com/ImageReplacement/1.0/">
	<!ENTITY ns_sfw "http://ns.adobe.com/SaveForWeb/1.0/">
	<!ENTITY ns_custom "http://ns.adobe.com/GenericCustomNamespace/1.0/">
	<!ENTITY ns_adobe_xpath "http://ns.adobe.com/XPath/1.0/">
]>
<svg version="1.1" id="Layer_1" xmlns:x="&ns_extend;" xmlns:i="&ns_ai;" xmlns:graph="&ns_graphs;"
	 xmlns="http://www.w3.org/2000/svg" xmlns:xlink="http://www.w3.org/1999/xlink" x="0px" y="0px" width="1432.5px"
	 height="923.1px" viewBox="0 0 1432.5 923.1" enable-background="new 0 0 1432.5 923.1" xml:space="preserve">
<metadata><?xpacket begin="﻿" id="W5M0MpCehiHzreSzNTczkc9d"?>
<x:xmpmeta xmlns:x="adobe:ns:meta/" x:xmptk="Adobe XMP Core 5.6-c145 79.163499, 2018/08/13-16:40:22        ">
   <rdf:RDF xmlns:rdf="http://www.w3.org/1999/02/22-rdf-syntax-ns#">
      <rdf:Description rdf:about=""
            xmlns:xmp="http://ns.adobe.com/xap/1.0/"
            xmlns:xmpGImg="http://ns.adobe.com/xap/1.0/g/img/"
            xmlns:xmpTPg="http://ns.adobe.com/xap/1.0/t/pg/"
            xmlns:stDim="http://ns.adobe.com/xap/1.0/sType/Dimensions#"
            xmlns:xmpG="http://ns.adobe.com/xap/1.0/g/"
            xmlns:dc="http://purl.org/dc/elements/1.1/"
            xmlns:xmpMM="http://ns.adobe.com/xap/1.0/mm/"
            xmlns:stRef="http://ns.adobe.com/xap/1.0/sType/ResourceRef#"
            xmlns:stEvt="http://ns.adobe.com/xap/1.0/sType/ResourceEvent#">
         <xmp:CreatorTool>Adobe Illustrator CC 23.0 (Windows)</xmp:CreatorTool>
         <xmp:CreateDate>2021-10-05T18:57:54+03:00</xmp:CreateDate>
         <xmp:MetadataDate>2021-10-05T18:57:54+03:00</xmp:MetadataDate>
         <xmp:ModifyDate>2021-10-05T18:57:54+03:00</xmp:ModifyDate>
         <xmp:Thumbnails>
            <rdf:Alt>
               <rdf:li rdf:parseType="Resource">
                  <xmpGImg:width>128</xmpGImg:width>
                  <xmpGImg:height>256</xmpGImg:height>
                  <xmpGImg:format>JPEG</xmpGImg:format>
                  <xmpGImg:image>/9j/4AAQSkZJRgABAgEASABIAAD/7QAsUGhvdG9zaG9wIDMuMAA4QklNA+0AAAAAABAASAAAAAEA&#xA;AQBIAAAAAQAB/+4ADkFkb2JlAGTAAAAAAf/bAIQABgQEBAUEBgUFBgkGBQYJCwgGBggLDAoKCwoK&#xA;DBAMDAwMDAwQDA4PEA8ODBMTFBQTExwbGxscHx8fHx8fHx8fHwEHBwcNDA0YEBAYGhURFRofHx8f&#xA;Hx8fHx8fHx8fHx8fHx8fHx8fHx8fHx8fHx8fHx8fHx8fHx8fHx8fHx8fHx8f/8AAEQgBAACAAwER&#xA;AAIRAQMRAf/EAaIAAAAHAQEBAQEAAAAAAAAAAAQFAwIGAQAHCAkKCwEAAgIDAQEBAQEAAAAAAAAA&#xA;AQACAwQFBgcICQoLEAACAQMDAgQCBgcDBAIGAnMBAgMRBAAFIRIxQVEGE2EicYEUMpGhBxWxQiPB&#xA;UtHhMxZi8CRygvElQzRTkqKyY3PCNUQnk6OzNhdUZHTD0uIIJoMJChgZhJRFRqS0VtNVKBry4/PE&#xA;1OT0ZXWFlaW1xdXl9WZ2hpamtsbW5vY3R1dnd4eXp7fH1+f3OEhYaHiImKi4yNjo+Ck5SVlpeYmZ&#xA;qbnJ2en5KjpKWmp6ipqqusra6voRAAICAQIDBQUEBQYECAMDbQEAAhEDBCESMUEFURNhIgZxgZEy&#xA;obHwFMHR4SNCFVJicvEzJDRDghaSUyWiY7LCB3PSNeJEgxdUkwgJChgZJjZFGidkdFU38qOzwygp&#xA;0+PzhJSktMTU5PRldYWVpbXF1eX1RlZmdoaWprbG1ub2R1dnd4eXp7fH1+f3OEhYaHiImKi4yNjo&#xA;+DlJWWl5iZmpucnZ6fkqOkpaanqKmqq6ytrq+v/aAAwDAQACEQMRAD8A9U4q7FXYq7FXYq7FXYq7&#xA;FXYqwW18h+bbbSZtIt/NT2+nuZVgEdsTcRQuwKqtw0xk5bGr9fiNKfDxVRupeVPMl95ZsNJbWws8&#xA;NDqk8sIuBelDy4uC0XCJ3FXjA3X4K8eqqtpnl3zlbXyT3nmuS8to5mY2bWdqiyQsSQjuiq/MVFGU&#xA;gf5OKqvkXzIPMWitqcYle2mnma1uZE9NZIWkYxCNTR6Rx8UYlRVgaVxVkWKuxV2KuxV2KuxV2Kux&#xA;V2KuxV2KuxV2KuxV2KrYoooY1iiRY40FERQFUDwAGKrsVdirsVdirsVdirsVdirsVdirsVdirsVd&#xA;irsVdirsVdirsVdirsVdirsVdirsVdirsVdirsVdirsVdirsVdirsVdirsVdirsVdirsVdirsVdi&#xA;rsVdirsVdirsVdirsVdirsVdirsVdirsVdirsVdirsVdirsVdirsVdirsVdirsVdirsVdirsVdir&#xA;sVdirsVdirsVdirsVdirsVdirsVdirsVdirsVdirsVdirsVdirsVdirsVdirsVdirsVdirsVdirs&#xA;VdirsVdirsVdirsVdirsVdirsVdirsVdirsVdirsVdirsVdirsVdirsVdirsVdirsVdirsVdirsV&#xA;dirsVdirsVdirsVdirsVdirsVdirsVdirsVdirsVdirsVdirsVdirsVdirsVdirsVdirsVdirsVd&#xA;irsVdirsVdirsVdirsVdirsVdirsVdirsVdirsVdirsVdirsVdirsVdirsVdirsVdirsVdirsVdi&#xA;rsVdirsVdirsVdirsVdirsVdirsVdirsVdirsVdirsVdirsVdirsVdirsVdirsVdirsVdirsVdir&#xA;sVdirsVdirsVdirsVdirsVdirsVdirsVdirsVdirsVdirsVdirsVdirsVdirsVdirsVdirsVdirs&#xA;VdirsVdirsVdirsVdirsVdirsVdirsVdirsVdirsVdirsVdirsVdirsVdirsVdirsVdirsVdirsV&#xA;dirsVdirsVWTTJDE0j/ZFNhuSSaAAeJOwxVLm1O5digQRLX+9RJrjpsR8EYTkO9HNDtviqmLyQXC&#xA;Rw6gKHaQ3aIKM2yoqKIG59zU7DtviqousRwyJ9YuoHhkPETKrQqPBgzs6upb4aqdiRiqZRSxSoJI&#xA;nWSNvsupBB+RGKrsVdirsVdirsVdirsVdirsVdirsVSHU7u6u5LeGNfRtTKecjGruFlSA8VU0Xeb&#xA;mrE1BX7PfFVTWbxonW0jiPpxp6jcG4ggRTMsZClW41hHTr0xVI52gE9yLOJ4Jwy2wuDBCqSqXlDI&#xA;wWJS6Uhk2qw3WnxHZVPLcTTaPbQ3IU3vr0RRuqvBOTXcn4UCfzVI2rU4qj4gE1O4UfCrxROB0DMG&#xA;cO3uacQT8sVReKuxV2KuxV2KuxV2KuxV2KuxV2KsdvX9C7mgdWHpCSS2ZRyJM7rMjUqAWW4iK8fD&#xA;j2rirnuoL2aC/VXSVYeE1pF6wlclt/sKkg9EqwRmWnxsvwknFVCzOlWt9JLa2ghk4qI47mT029Q1&#xA;ZyUYyS1PIAUQ17bGuKq8ZulvBLNILSBpPUCkkFY+XqOKuEaksvYgMelKLuqmkMovbsOqtGloxpzU&#xA;o7s6fyncJRu43b5bqo7FXYq7FWM6xrtwnmOy063ufQRZIvViCKxn9QnmpLK3FY14mooSWG+xxVAz&#xA;/mBdRvEY9PE0bOsMnF2FJCGdvj4sgCIFYhtzy+XJVlljfwXlslzFVY5CQoegJoxXpU9eO2KtX1/F&#xA;ZopZWllkPGGCMAyO3WigkD6SQB3OKrdM1FL+B5BDJbvFI0MsM3DmrodwTG0iH6GxVF4q7FXYqluo&#xA;Wxl1G1I41WKaiyCsbnlH8LD5Voeo+VQVUHPDdQzBhHMsLfDNank8clOnGSFJZOK+DqOQ26DjiqJ5&#xA;6mqrbWtpHbpSvOJvhUE1pR0j4k+IVqd13xVS/RaW0wubm9m9RwVEEVX5VpULyEs5IC/ssKCpAG+K&#xA;o+yjrLLcBDGjqkUKFSv7uMEglTQj4nbbwpiqLxV2KuxViUl5aXtzqMuoWkP1RY5fTlRWjuT9SuWh&#xA;4mZW5GsickC0pXvXFUgS10+xDjU0drSb91PHGXE4vI44JJGhKsCvJlSPx+HlyA6qo/RrrSZdP1Ca&#xA;5upDCvoPZ34i4/DyeaIwxI0rsVZ2Jb9oHb4cVR1rcazqOsKReWsBihVYpWicu6zoJRJDDIy+nLwq&#xA;G5cqbddxiqe6JdaS8ctpp8jSfVW/fMyuCzSVYycmCiTm1autRyr3BxVMsVdirsVU54EmQK1QVPJH&#xA;U0ZW6VU/5+HTFVH0NRTaO7V18ZogzffG0S0/2OKoG+fVtNsZJ0uUuQpHwSRMWHL4VVSrgkciPtVP&#xA;ucVTC2gYMZ5pFmmYUV1BVAnWiKWelepNd/kAAqiMVdirsVdirDtV1ry4gu7zTkju7y2eGSOSrSWo&#xA;muJI4xMihhGXUSglloTWnLrirc9y2pXenwyxrBPOPRuJYSAfUvLFnMic1b7CRMByr2xVJfM0Go2h&#xA;u2gRrX6ss6rPw5s9skIosYLIKRwoebddwB8XRVVjsNT/AE9cXs1l6t2Y2sIltUcRpRqFfVbkEVbZ&#xA;xQsF5sAd6hVVZP5atpLG0llmj+qWojj5Gc/vS8an1ZHZieMdOIRdqAE98VT7FXYq7FXYq4kKCSaA&#xA;bknoBiqR6lcXF/Z3z2hpb2sZeGUiomnjq447VCoVWjL1b/V3VRPlr0P0HaLACII0McfLqVRioJps&#xA;K0rQbDoNsVRk17bQv6bMWlpX0o1aR6fzcEDNT3pTFW4Ly3nYojESAVMbqyPTx4OFanvTFVbFUt8w&#xA;aNBq2nm2mRZQh9WONwCpkRT6da+DkH6MVYvN5ejsxp8chZ/VpJfadFEZJGRGilQD0yVURzRULVAI&#xA;NN9sVQ0V/bWsE11Fa3scEd/BFplzMA45r+5KtzkErDnJKh47cNh4YqivOV7qMRsZNTtIljX12+r2&#xA;s7yiZEi5yJK7wR+nHxUlyATxqBvQFVDXXm25i1rUZ01CCF4I5Yksp5PVVPQIZmkt43Uh/sotD8TM&#xA;R4AqoOJbjUbnU1ecnT9QuLYBo5HSMyyIpdvgfjJCRzA/m4ruV44qzrRNN0lIotQs1lka4iBiuLqW&#xA;a4m9FwrBQ9w8jorUVitRv1FcVTTFWmVWUqwqrChHscVWzzxQRmSU0UeAJJPYACpJPYDc4qlU0l7e&#xA;q07RC1tIgXhNyQhYjcOyEPx/yeY+HqVJ2VVU0vVLKaaaCGRFitokZk5KxUkvzYsC3IUAPKv41xVK&#xA;PLJubO2lsmlKzSGIxxuABbx+lx3rvtHDy8N19ziqKaa7lsriSwmK2zyj6rwWstxWNRRZH4gBnr8d&#xA;Sad1piqvZw2VmkBvTNFLD/dyXEj+kKjiAp9SWMbGgDMW+eKpxHLHLGskTrJGwqrqQQR7EYquxVj+&#xA;q+Xbua8a8tpfW5bNbyz3NuaE1Kia3avCtaI6PSppQbYqlt8YrnRL26S8hcaIjT29pYq0cUTwqW3c&#xA;msjcQQrABR141ocVQ2p+ZZr249G80RjbAy23P1lEqMz8ee32fhC7AE82AGwJxVRWC7meWGzl9PTV&#xA;E96sjSyC4Ro3aFpVkTdy45TBDx+JzyJG2KpvpOnWWvXN3qep6ejo7IsCyeo8TBFpyCS0UsOnqKg6&#xA;0HclVkVvdW0k89rCN7TgklBRVLLyCD3CkH6RiqIxV2Koe9ikYRSx8edu/qBXJVSODIasA1Nnr0xV&#xA;KL66vnRJ7mcWFpUNG0cJuDsQORZkKp1BQlR8jTFUHcXFjfWr282rzGEBkGpp6DQbL8avOkKIhK7M&#xA;KjwBriqD0u8N7qczz3FuXRDDdXIHOCXmE4ghXTb/AERzueNDTviqd/pNRecw36QdUHptbxu8StIW&#xA;H2oxLw+FPi5EncU8CqiwbmXjA0xdp15zcUMQjipSig/GrOdviPiRSmKpgqqqhVAVVFFUbAAdhire&#xA;KuIBBB6HbY0P3jFWL2PlvUo7Z9NnEC2MsMNtcXEcrNJLFAnpgCExIsZkTZ/3jDwGKo/U/LcNwhks&#xA;HWyv/WE4uinrfFyDGqFlr023oD92KoNfI1jFEtnBPKNNdDFeW0zPM0sZKkr6jPVQ4jCvseS+B3xV&#xA;GQweY7ONbK2W1uLaMcIbueWRJUQbKGhWNhJxHf1F5e3XFUfp1glnC68vUmmczXExFC8jUq1OwoAA&#xA;OwAGKorFXYqlTatpd25T63CLVD8ZMiD1CDWg3+x4+Py6qr04yXLXEEbXMxP7uaXkkEa0oPT5V+0v&#xA;7SA8u5pSiq5rC9ZYkMtsIoCGijEDhQUFF+ETU+HsKdaHtiqVapDe2lyl/HDE11cXEdIuZ9Nn/dQq&#xA;HfiG+GL1W5cdvA7AqpnFHfQyUigKA1/dLKptt/dk9VT7KvHFUbbwGIMztzmkPKWSlKnoABU0AGwH&#xA;8anFVXFXYq7FXYq7FXYq7FXYq7FXYq7FXYq7FUu1+F5dPIjp6vIJHX7NZqwGv+xlOKo63mSeCOdK&#xA;8JVV1r1owqK4qvxV2KuxV2KuxV2KuxV2KuxV2KuxV2KuxV2KoTVgP0bcP+1EhmT2eL94h+hlGKt6&#xA;XtYxx9oC8APiIXMYP0ha4qisVdirsVdirsVdirsVdirsVdirsVdirsVdiq2SNJI2jkHJHBVlPQgi&#xA;hGKpZ5buBNp5HqCUxv8AG4IJLyIsz8qdw0pGKpoyhlKnoRQ9+vzxVZbQJb28VuhZkhRY1Z2LMQoo&#xA;CzHcnbcnFVTFXYq7FXYq7FXYq7FXYq7FX//Z</xmpGImg:image>
               </rdf:li>
            </rdf:Alt>
         </xmp:Thumbnails>
         <xmpTPg:MaxPageSize rdf:parseType="Resource">
            <stDim:w>1432.528302</stDim:w>
            <stDim:h>923.094340</stDim:h>
            <stDim:unit>Pixels</stDim:unit>
         </xmpTPg:MaxPageSize>
         <xmpTPg:NPages>1</xmpTPg:NPages>
         <xmpTPg:HasVisibleTransparency>False</xmpTPg:HasVisibleTransparency>
         <xmpTPg:HasVisibleOverprint>False</xmpTPg:HasVisibleOverprint>
         <xmpTPg:PlateNames>
            <rdf:Seq>
               <rdf:li>Cyan</rdf:li>
               <rdf:li>Magenta</rdf:li>
               <rdf:li>Yellow</rdf:li>
               <rdf:li>Black</rdf:li>
            </rdf:Seq>
         </xmpTPg:PlateNames>
         <xmpTPg:SwatchGroups>
            <rdf:Seq>
               <rdf:li rdf:parseType="Resource">
                  <xmpG:groupName>Default Swatch Group</xmpG:groupName>
                  <xmpG:groupType>0</xmpG:groupType>
               </rdf:li>
            </rdf:Seq>
         </xmpTPg:SwatchGroups>
         <dc:format>image/svg+xml</dc:format>
         <xmpMM:DerivedFrom rdf:parseType="Resource">
            <stRef:instanceID>xmp.iid:dde663e3-8c23-364c-a832-db338100460a</stRef:instanceID>
            <stRef:documentID>xmp.did:dde663e3-8c23-364c-a832-db338100460a</stRef:documentID>
            <stRef:originalDocumentID>xmp.did:0da78314-b528-2646-aa36-46f92c245760</stRef:originalDocumentID>
         </xmpMM:DerivedFrom>
         <xmpMM:DocumentID>xmp.did:e403629a-eacc-e84a-bed7-095da47b3d7a</xmpMM:DocumentID>
         <xmpMM:InstanceID>xmp.iid:e403629a-eacc-e84a-bed7-095da47b3d7a</xmpMM:InstanceID>
         <xmpMM:OriginalDocumentID>xmp.did:0da78314-b528-2646-aa36-46f92c245760</xmpMM:OriginalDocumentID>
         <xmpMM:History>
            <rdf:Seq>
               <rdf:li rdf:parseType="Resource">
                  <stEvt:action>saved</stEvt:action>
                  <stEvt:instanceID>xmp.iid:0da78314-b528-2646-aa36-46f92c245760</stEvt:instanceID>
                  <stEvt:when>2021-10-05T18:55:14+03:00</stEvt:when>
                  <stEvt:softwareAgent>Adobe Illustrator CC 23.0 (Windows)</stEvt:softwareAgent>
                  <stEvt:changed>/</stEvt:changed>
               </rdf:li>
               <rdf:li rdf:parseType="Resource">
                  <stEvt:action>saved</stEvt:action>
                  <stEvt:instanceID>xmp.iid:e403629a-eacc-e84a-bed7-095da47b3d7a</stEvt:instanceID>
                  <stEvt:when>2021-10-05T18:57:54+03:00</stEvt:when>
                  <stEvt:softwareAgent>Adobe Illustrator CC 23.0 (Windows)</stEvt:softwareAgent>
                  <stEvt:changed>/</stEvt:changed>
               </rdf:li>
            </rdf:Seq>
         </xmpMM:History>
      </rdf:Description>
   </rdf:RDF>
</x:xmpmeta>
                                                                                                    
                                                                                                    
                                                                                                    
                                                                                                    
                                                                                                    
                                                                                                    
                                                                                                    
                                                                                                    
                                                                                                    
                                                                                                    
                                                                                                    
                                                                                                    
                                                                                                    
                                                                                                    
                                                                                                    
                                                                                                    
                                                                                                    
                                                                                                    
                                                                                                    
                                                                                                    
                           
<?xpacket end="w"?>
	</metadata>
<path fill="#FFFFFF" stroke="#000000" stroke-width="2" stroke-miterlimit="10" d="M347.5-1621"/>
<g>
	<g>
		<path d="M926-1674.3c5.8-8.6-14.9-13.6-16.1-2.1c-0.6,6.2,4.3,11.9,8.6,15.6c2.6,2.2,6.1,3.8,8.5,6.2c3.6,3.6-1.8,3.9-4.5,4.5
			c-2.4,0.6-7.5,1.9-9.5-0.4c-1.3-1.5-3.4,0.7-2.1,2.1c3.2,3.7,10,2,14.1,0.8c2.7-0.8,8.4-2.2,7.1-6.1c-0.6-1.9-3.2-3.2-4.7-4.2
			c-2.7-1.8-5.4-3.7-7.8-5.9c-2.5-2.3-5-5.1-6.1-8.4c-0.9-2.7-0.3-6,2.5-7.5c1.7-0.9,10.3-0.2,7.4,4
			C922.3-1674.2,924.9-1672.7,926-1674.3L926-1674.3z"/>
	</g>
</g>
<g>
	<g>
		<path d="M942-1663.4c2.2-2.4,4.7-7.2-0.4-7.9c-4.3-0.6-8.6,2.8-11,6c-2.5,3.3-4.1,7.7-0.3,10.6c4.6,3.6,11.8,4.6,17.4,4.8
			c1.9,0.1,1.9-2.9,0-3c-2.8-0.1-5.7-0.5-8.4-1.2c-1-0.3-2-0.6-3-1c-2.4-0.9-3.3-1.1-4.4-3.4c-0.9-2.1-0.6-2.6,0.6-4.4
			c0.7-1.1,1.6-2.1,2.6-3c1.1-1,2.5-1.8,3.9-2.2c2.5-0.7,2.3,0.9,0.8,2.6C938.6-1664,940.7-1661.9,942-1663.4L942-1663.4z"/>
	</g>
</g>
<g>
	<g>
		<path d="M951.1-1652.1c2.7-2.2,7.1-6.7,6.5-10.6c-0.5-3.4-4.2-2.8-5.7-0.6c-0.3,0.4-0.2,1.1,0,1.5c0.9,1.6,3.1,1.5,4.7,1.9
			c2.2,0.5,4.5,0.4,2.9,3.3c-0.3,0.6-0.9,0.8-1.1,1.5c-1.2,4.1,5.8,4.2,8.1,4.4c1.9,0.2,1.9-2.8,0-3c-0.6-0.1-4.8-0.2-4.9-0.8
			c0,0.1,1.6-1.9,1.6-1.9c0.5-1,0.6-2.3,0.1-3.3c-0.6-1.1-1.8-1.7-2.9-2.1c-1-0.4-2-0.7-3-1c-0.7-0.2-1.4-0.3-2.1-0.5
			c-1.1-0.4-1.4-0.4-0.8-0.1c0,0.5,0,1,0,1.5c-0.8,1.2-1.2,2.9-2.1,4.1c-1,1.3-2.1,2.4-3.4,3.4
			C947.5-1653.1,949.6-1651,951.1-1652.1L951.1-1652.1z"/>
	</g>
</g>
<g>
	<g>
		<path d="M973.2-1658.4c-0.8-3.7-5.8-2-7.5,0c-2.3,2.5-0.8,5.9,2.4,6.5c2.9,0.6,6.1-1.2,7.4-3.8c1.5-2.9,0.6-6.7-3-7
			c-1.5-0.1-2.1,2.2-0.8,2.8c1,0.5,2.1,0.9,3.2,1.2c1.9,0.5,2.7-2.4,0.8-2.9c-0.9-0.2-1.7-0.5-2.5-0.9c-0.3,0.9-0.5,1.9-0.8,2.8
			c1.5,0.1,0.5,2.5,0,3.1c-0.6,0.8-1.5,1.4-2.5,1.6c-0.6,0.2-2.3,0.2-2.4-0.8c-0.1-1,2.8-2,2.8-1.9
			C970.7-1655.7,973.6-1656.5,973.2-1658.4L973.2-1658.4z"/>
	</g>
</g>
<g>
	<g>
		<path d="M977.9-1659.2c5.5-2.8,11.3-5.8,15.1-10.8c2.2-2.8,3.3-7.2-1.4-7.6c-5-0.5-10.6,4.8-13,8.7c-2.7,4.3-2.4,9.1,1.3,12.7
			c3.3,3.2,8.6,6.7,13.3,4.8c5.1-2,9-8.4,12-12.7c1.5-2.2,7.2-9.6,3-11.9c-3.2-1.8-7.9,3.5-9.4,5.7c-3.1,4.3-6.7,11.9-5.7,17.4
			c1.2,6.5,8.6,10.6,14.2,12.4c1.8,0.6,2.6-2.3,0.8-2.9c-4.9-1.6-12.1-5.4-12.1-11.5c0-3.7,2.3-8.5,4-11.6c1-1.9,2.3-3.6,3.9-5
			c2.4-2,2.2-0.5,1.3,1.7c-1.5,4-5.2,7.6-7.8,10.8c-1.2,1.4-2.5,3.2-4.1,4.2c-3.2,1.9-6,0.2-8.7-1.6c-1.9-1.3-4.1-2.9-4.6-5.2
			c-0.9-3.5,1.7-6.8,4-9c1-0.9,7.1-6.4,7.6-2.2c0.1,0.9-3.1,3.6-3.8,4.1c-3.4,2.9-7.4,4.9-11.3,7
			C974.6-1660.9,976.2-1658.3,977.9-1659.2L977.9-1659.2z"/>
	</g>
</g>
<g>
	<g>
		<path d="M1057.9-1662.1c1.8-6.1-7.3-3.7-9.9-2.5c-4.1,1.8-10.3,6.4-7.7,11.7c2.6,5.3,9.8,3.6,13.6,0.9c4.5-3.1,6.7-8.6,4.1-13.7
			c-0.9-1.7-3.5-0.2-2.6,1.5c1.7,3.2,0.4,6.7-2.2,9c-2.1,1.8-6.1,3.8-8.8,2.3c-4.1-2.2,0.2-6.3,2.5-7.8c1.3-0.8,2.7-1.5,4.2-1.9
			c0.4-0.1,4.3-1.1,4-0.3C1054.5-1661.1,1057.4-1660.3,1057.9-1662.1L1057.9-1662.1z"/>
	</g>
</g>
<g>
	<g>
		<path d="M1068.4-1680.7c0.8-2.9,2.3-5,4.9-6.6c-0.7-0.7-1.4-1.4-2.1-2.1c-5.2,9.2-13.3,17.7-13.7,28.8c-0.2,6.5,4.2,18,12.4,16.5
			c1.9-0.3,1.1-3.2-0.8-2.9c-4.5,0.8-7.6-6.5-8.3-9.9c-1-4.6,0.4-9.5,2.3-13.7c2.9-6.2,7.3-11.5,10.7-17.4c0.7-1.3-0.8-2.9-2.1-2.1
			c-3.2,2-5.2,4.7-6.3,8.4C1065-1679.7,1067.9-1678.9,1068.4-1680.7L1068.4-1680.7z"/>
	</g>
</g>
<g>
	<g>
		<path d="M1075.5-1654.3c1.3-1.5,4.9-4.3,4.1-6.8c-0.7-2.1-3.1-2-4.8-1.4c-5.1,1.8-10.5,9.4-4.6,13.4c5.4,3.6,12.6-2.4,12.6-8.3
			c0-4.8-6.6-7.8-8.9-2.8c-0.4,0.8-0.2,1.5,0.5,2.1c8.8,6.8,18-4.3,23.9-9.8c-0.7-0.7-1.4-1.4-2.1-2.1c-3.8,4.7-13.3,17.7-5.4,22.9
			c8.7,5.7,14.4-13.4,15.6-18.6c0.4-1.7-1.8-2.6-2.7-1.2c-3.1,4.7-6,17,1,20.1c7.8,3.4,10.3-13.1,11.3-17.2c-1-0.1-2-0.3-2.9-0.4
			c0,4.4,2.4,7.7,6.5,9.2c1.8,0.7,2.6-2.2,0.8-2.9c-2.8-1-4.3-3.4-4.3-6.3c0-1.7-2.5-2.1-2.9-0.4c-0.6,2.2-1.1,4.4-1.8,6.6
			c-0.3,1.1-0.7,2.2-1,3.3c-0.8,2.2-0.7,3.9-3.4,4.1c-2.5,0.2-2.4-0.3-3-2.6c-0.3-1.3-0.4-2.6-0.4-3.9c0.1-3,1.2-5.6,2.8-8
			c-0.9-0.4-1.8-0.8-2.7-1.2c-0.6,2.8-1.4,5.5-2.5,8.1c-0.7,1.6-3.9,9-5.8,8.7c-1.4-1.6-2.7-3.3-4.1-4.9c0.1-0.5,0.3-1,0.4-1.5
			c0.2-1.3,1.1-2.8,1.7-4c1.4-2.8,3.2-5.4,5.1-7.9c1.2-1.5-0.7-3.5-2.1-2.1c-4.8,4.5-12.9,14.9-20.2,9.3c0.2,0.7,0.4,1.4,0.5,2.1
			c1.1,0.4,2.2,0.9,3.3,1.3c-0.4,1.1-0.7,2.1-1.1,3.2c-1.2,1-2.5,2-3.7,3c-3.5-2.5-4.3-4.6-2.4-6.2c0.4-0.7,2-1.8,2.6-1.6
			c0.6,0.3-1.7,2.4-1.8,2.6C1072.1-1655,1074.2-1652.9,1075.5-1654.3L1075.5-1654.3z"/>
	</g>
</g>
<g>
	<g>
		<path d="M1120.1-1656c2.1-3.7,5-6.3,9-8c-0.6-0.5-1.3-1-1.9-1.4c0.1,2.9,0.5,14.1,5,14.3c1.4,0.1,1.8-1,2.5-2
			c2-3.2,2.8-8.1,4-11.7c-1,0-1.9,0-2.9,0c1.3,6,5.1,10.3,10.7,12.6c1.8,0.7,2.6-2.2,0.8-2.9c-4.7-1.9-7.6-5.6-8.7-10.5
			c-0.3-1.5-2.4-1.3-2.9,0c-0.4,1.1-2.7,9.9-3.4,9.9c-1.7,0.1-2.2-8.8-2.2-9.7c0-0.9-0.9-1.8-1.9-1.4c-4.7,1.9-8.2,4.9-10.8,9.3
			C1116.5-1655.9,1119.1-1654.4,1120.1-1656L1120.1-1656z"/>
	</g>
</g>
<g>
	<g>
		<path d="M1183.2-1670.4c-8.5,21.1-13.4,43.5-14.6,66.2c-0.1,1.9,2.9,1.9,3,0c1.1-22.5,6-44.5,14.5-65.4
			C1186.8-1671.4,1183.9-1672.2,1183.2-1670.4L1183.2-1670.4z"/>
	</g>
</g>
<g>
	<g>
		<path d="M1164.5-1626.8c-0.4,8.9,1.7,17.3,6.3,24.8c0.6,1,2.5,1,2.7-0.4c2.9-14.5,14.8-23.4,26.2-31.4c1.6-1.1,0.1-3.7-1.5-2.6
			c-12.1,8.4-24.5,18-27.6,33.2c0.9-0.1,1.8-0.2,2.7-0.4c-4.4-7.2-6.3-15-5.9-23.3C1167.6-1628.7,1164.6-1628.7,1164.5-1626.8
			L1164.5-1626.8z"/>
	</g>
</g>
<path fill="none" stroke="#000000" stroke-miterlimit="10" d="M506.2,238.2c3.5,5.1,13.1,20.6,12,42c-0.2,3.4-2.5,34.5-24,48
	c-15.2,9.5-27,1.7-42,15c-5,4.4-9.7,10.6-13,15c-7.3,9.7-10.2,15.9-18.6,21.6c-1.4,0.9-2.6,1.7-3.8,2.3c0,0-2.2,1.2-4.5,2.1
	c-1.4,0.5-41.1,15.3-75-7c-6-4-13.1-8.7-18-18"/>
<path fill="none" stroke="#000000" stroke-miterlimit="10" d="M442.2,293.2c-0.2-4.6,0-12.3,4-20c10.3-19.7,33.4-15.6,62-36
	c10.5-7.5,30.7-21.9,31-41c0.3-15.4-12.7-17.5-19-40c-6.7-24.1,4.4-35-3-49c-5-9.5-18.1-19.5-54-21"/>
<path fill="none" stroke="#000000" stroke-miterlimit="10" d="M463.2,105.2c0.9-16,0-43.5-16-53c-4.5-2.6-6.9-2-37-5
	c-23.9-2.4-25.6-3.1-30-2c-5.7,1.5-21.7,7.5-33,42"/>
<path fill="none" stroke="#000000" stroke-miterlimit="10" d="M202.2,131.2c7.4-47.9,23.6-65.4,38-72c15.9-7.3,28-0.8,57-13
	c16.6-7,20.7-12.5,33-14c18.4-2.2,34.5,7.1,45,15"/>
<path fill="none" stroke="#000000" stroke-miterlimit="10" d="M341.2,376.2c-16.6,4.3-44,9.1-77,4c-20.9-3.2-39.4-6.1-54-20
	c-29.6-28.3-18.5-78.8-17-85"/>
<path fill="none" stroke="#000000" stroke-miterlimit="10" d="M320.2,327.2c-12.7,2-41.3,4.7-73-9c-9.5-4.1-42.9-19.1-62-56
	c-7.7-14.8-10.7-28.6-12-38"/>
<path fill="none" stroke="#000000" stroke-miterlimit="10" d="M212.2,269.2c-29.2-22.9-41.6-47.5-47-61c-6.3-15.7-18.2-45.3-4-60
	c10.2-10.6,28.6-8.1,35-7"/>
<path fill="none" stroke="#000000" stroke-miterlimit="10" d="M342.2,329.2c9.5-2.5,23.6-6.7,40-14c20.2-9,19.6-11.9,34-17
	c23.3-8.3,32.7-3.5,51-13c10-5.2,16.9-11.7,21-16"/>
<path fill="none" stroke="#000000" stroke-miterlimit="10" d="M433.2,294.2c-1.5-6.3-4.5-14-11-17c-13.7-6.2-27.3,15.9-61,29
	c-7.9,3.1-47.5,18.5-73,0c-6.7-4.9-10.7-10.8-13-15"/>
<path fill="none" stroke="#000000" stroke-miterlimit="10" d="M279.2,298.2c-5.3-1.8-72.8-26.2-88-92c-7.5-32.2,1.1-59.4,6-72
	c4.7-1.7,9.3-3.3,14-5"/>
<path fill="none" stroke="#000000" stroke-miterlimit="10" d="M244.2,239.2c-4.5-4.6-40.2-42-32-93c1.3-8.4,7.4-46,40-64
	c29.6-16.3,69.8-10.1,100,16"/>
<path fill="none" stroke="#000000" stroke-miterlimit="10" d="M352.2,98.2c4.1-2.9,16.8-11.1,31-8c20.7,4.6,28.9,29.6,31,36
	c6.2,18.9,0.2,27.3,3,58c1.4,14.6,4,26.4,6,34"/>
<path fill="none" stroke="#000000" stroke-miterlimit="10" d="M396.2,97.2c3.3-3.7,15.3-16,32-16c25.7,0,46.1,29,45,51
	c-0.7,14.2-10,18.7-25,44c-11.1,18.8-17.4,35.7-21,47"/>
<path fill="none" stroke="#000000" stroke-miterlimit="10" d="M422.2,277.2c9.7-10,22.3-25.2,33-46c8-15.6,14.9-34.4,12-36
	c-3-1.7-11.3,18.3-34,35c-18.7,13.8-35.8,19.6-52,25c-29.8,9.9-39.3,3.1-61,12c-20.1,8.2-33.3,21.7-41,31"/>
<path fill="none" stroke="#000000" stroke-miterlimit="10" d="M231.2,222.2c-3.9,4.8-8,11.4-6,17c5.2,14.7,50.1,16,85,9
	c32.1-6.4,45.2-17.6,83-20c11.1-0.7,20.2-0.4,26,0"/>
<path fill="none" stroke="#000000" stroke-miterlimit="10" d="M279.2,289.2c-18-16.7-36-33.3-54-50"/>
<path fill="none" stroke="#000000" stroke-miterlimit="10" d="M282.2,151.2c-10.2-9.5-14.7-10.2-17-9c-6.8,3.7-1.7,29.4,7,48
	c5.2,11.1,11,18.6,13,21c15.2,18.7,34.1,27.7,46,32"/>
<path fill="none" stroke="#000000" stroke-miterlimit="10" d="M265.6,234.3c-1.7-7.9,6-13.9,7.6-22.1c3.6-18.2-5.7-32.6-8-36"/>
<path fill="none" stroke="#000000" stroke-miterlimit="10" d="M291.2,178.2c-12.5-28-11.5-55.6,3-69c7.5-6.9,16.8-8.5,26-10
	c7.4-1.2,35.6-5.9,57,13c11.3,10,16,22.4,18,30"/>
<path fill="none" stroke="#000000" stroke-miterlimit="10" d="M344.2,238.2c1.5-12.8,5.4-26.5,14-39c9.8-14.2,17.7-15.3,31-33
	c7.9-10.6,21.1-28.1,15-39c-4.1-7.4-15.3-8.7-21-9"/>
<path fill="none" stroke="#000000" stroke-miterlimit="10" d="M285.2,186.2c5,3.6,20.9,14,42,12c12.9-1.2,39.3-8.3,43-28
	c2.7-14.4-6.8-31.6-12-31"/>
<path fill="none" stroke="#000000" stroke-miterlimit="10" d="M350.2,184.2c-15.6,4.5-32-1.4-40-14c-7.5-11.8-5.7-26.2,0-36
	c10.3-17.7,31.6-18,35-18c12.7-0.2,34.8,5,38,21c2.9,14.6-12.1,27.3-13,28"/>
<path fill="none" stroke="#000000" stroke-miterlimit="10" d="M350.2,184.2c3.7-8.5,4.2-15.5,4-20c-0.1-1.8-0.4-9.4-3-10
	c-2.1-0.5-3.2,4.1-8,6c-5.2,2.1-8.7-1.5-12,0c-2.8,1.3-5.2,6.1-4,21"/>
<path fill="none" stroke="#000000" stroke-miterlimit="10" d="M362.2,395.2"/>
<path fill="none" stroke="#000000" stroke-miterlimit="10" d="M389.2,389.2c13.4,55.5,30.6,128.9,50,218c2.8,13,4.5,21,5,23
	c12.9,60.5,30.5,142.6,45,234c6.5,40.9,14.3,95.5,21,161l-18,1c-2.9-24.3-7.3-59.1-13-101c-1.1-7.9-4-32-6.9-50.1
	c-0.5-2.9-3.1-8.9-8.1-11.9c3-6,4-15,3.8-17.9c-1-14.4-1.3-24.2-12.8-79.1c-5.2-24.9-4.5-26.5-10.1-50.8c-7.7-25.1-9.6-35-17.7-91.6
	c-9.6-52-32.2-166.6-39.2-175.6c-1-1-2-4-6-6c2-3,3.6-4.6,3.4-8.8c-0.4-9.2-4-22.8-7.4-34.2c-0.2-0.5-0.6-2.1-1.3-4.4
	c-0.5-1.7-0.7-2.4-1-3.3c-0.2-0.6-0.4-1.4-0.7-2.4"/>
<path fill="none" stroke="#000000" stroke-miterlimit="10" d="M468.2,621.2c10.2-16.2,30.1-43.2,64-66c36.1-24.2,37.8-24.1,57-27"/>
<path fill="none" stroke="#000000" stroke-miterlimit="10" d="M446.2,632.2c0.6-11.7,4.2-58.4,42-94c9.4-8.8,45.4-42.8,93-35
	c25.2,4.1,42.6,18.1,51,26"/>
<path fill="none" stroke="#000000" stroke-miterlimit="10" d="M448.2,641.2c41.5,4.6,63.1-8.8,71.8-15.6
	c8.2-6.4,13.8-13.8,21.2-23.4c14.2-18.3,18.6-35.1,36-51c4.7-4.3,10.4-9.7,19.6-14.3c14.1-7,27.5-7.8,35.4-7.7"/>
<path fill="none" stroke="#000000" stroke-miterlimit="10" d="M481.2,602.2c2.8-2.9,9.2-8.5,19-11c6.2-1.6,11.5-1.4,15-1"/>
<path fill="none" stroke="#000000" stroke-miterlimit="10" d="M510.2,572.2c2-4.3,4.6-11.2,5-20c0.2-5.1-0.3-9.5-1-13"/>
<path fill="none" stroke="#000000" stroke-miterlimit="10" d="M538.2,551.2c3.8-1.5,10.5-3.6,19-3c5.5,0.4,9.9,1.8,13,3"/>
<path fill="none" stroke="#000000" stroke-miterlimit="10" d="M573.2,533.2c1.3-3.7,2.7-7.3,4-11"/>
<path fill="none" stroke="#000000" stroke-miterlimit="10" d="M335.2,160.2c3.7-6.3-4.2-4.7-3-10c0.2-0.7,0.8-3.1,3-5
	c2.6-2.2,5.8-2.1,8-2c3.7,0.1,10.4,1.5,11,5c0.3,1.6-0.9,3.2-2,4c-2.1,1.5-5.4,1.2-8-1"/>
<path fill="none" stroke="#000000" stroke-miterlimit="10" d="M400.2,435.2c1,1.4,2.6,4.3,5,6c3.3,2.3,5,3,7,3c0,0-2.5,2.7-4,7
	c-1.1,3.1-2.1,7-2,9"/>
<path fill="none" stroke="#000000" stroke-miterlimit="10" d="M464.2,724.2c1,1.4,2.6,4.3,5,6c3.3,2.3,5,3,7,3c0,0-2.5,2.7-4,7
	c-1.1,3.1-2.1,7-2,9"/>
<path fill="none" stroke="#000000" stroke-miterlimit="10" d="M386.2,625.2c10-16,19.3-51.5,16-80c-0.9-8-5.9-82.8-29-85
	c-21.3-2-25.6,59.6-82,97c-39.8,26.4-76.7,27.3-88,51c-11,23,10.3,48.7,29,44c20-5.1,23.1-17.3,54-23c22.4-4.1,31.4,2.4,68,1
	c19.6-0.7,30-4,31-4c6.7,0-11.4-22.2-84-65"/>
<path fill="none" stroke="#000000" stroke-miterlimit="10" d="M344.2,588.2c2.9-6.1,6-14.2,8-24c1.4-6.7,1.9-12.8,2-18"/>
<path fill="none" stroke="#000000" stroke-miterlimit="10" d="M358.2,597.2c-9.9-1.4-24.2-2.2-41,1c-11.4,2.2-20.8,5.7-28,9"/>
<path fill="none" stroke="#000000" stroke-miterlimit="10" d="M357.2,473.2c-13.2,16.4-25.9,27.2-35,34c-13.7,10.2-21.5,13-36,26
	c-9.9,8.9-11.7,12.4-22,23c-8.5,8.7-21.3,20.6-39,33"/>
<path fill="none" stroke="#000000" stroke-miterlimit="10" d="M389.2,620.2c5.8,4.1,11.8,8.8,18,14c9.6,8.2,17.9,16.3,25,24"/>
<path fill="none" stroke="#000000" stroke-miterlimit="10" d="M385.2,626.2c7.3,5.2,15.1,11.2,23,18c9.9,8.5,18.6,17,26,25"/>
<path fill="none" stroke="#000000" stroke-miterlimit="10" d="M423.2,688.2c5.6,13.5,10.9,31.2,3,40c-10.8,12-34.1-5.8-71-7
	c-54.6-1.8-71.9,34.7-140,45c-28.1,4.2-51.4,2-65,0"/>
<path fill="none" stroke="#000000" stroke-miterlimit="10" d="M327.2,630.2c-44.4,6-69.4,22.4-84,36c-14.9,13.9-19,25-36,46
	c-22.6,27.9-46.2,46.5-63,58"/>
<path fill="none" stroke="#000000" stroke-miterlimit="10" d="M420.2,684.2c-1.6,0.1-4,0.2-7,0c-9-0.6-15.6-3.5-17.3-4.2
	c-8.9-3.7-20.8-3.7-37.7-3.8c-16.5,0-39.1-0.1-64,11c-23.2,10.4-38.7,26.1-48,38"/>
<path fill="none" stroke="#000000" stroke-miterlimit="10" d="M369.2,706.2c2-3.7,5.6-9.6,12-15c7.3-6.2,14.7-8.8,19-10"/>
<path fill="none" stroke="#000000" stroke-miterlimit="10" d="M344.2,676.2c-4.7,2.1-10.2,4.9-16,9c-4.8,3.4-8.8,6.9-12,10"/>
<path fill="none" stroke="#000000" stroke-miterlimit="10" d="M317.2,679.2c-5.2-3.1-14.5-7.9-27-9c-7.2-0.7-13.4,0.1-18,1"/>
<path fill="none" stroke="#000000" stroke-miterlimit="10" d="M266.2,704.2c-3.7,0-7.3,0-11,0"/>
<path fill="none" stroke="#000000" stroke-miterlimit="10" d="M375.2,677.2c-5.5-4.8-12.4-10.1-21-15c-11.6-6.7-22.4-10.6-31-13"/>
<path fill="none" stroke="#000000" stroke-miterlimit="10" d="M420.2,677.2c-3.2-7.4-8.1-17-16-27c-8.4-10.7-17.2-18.1-24-23"/>
<path fill="none" stroke="#000000" stroke-miterlimit="10" d="M432.2,674.2c-5,1.3-10,2.7-15,4"/>
<path fill="none" stroke="#000000" stroke-miterlimit="10" d="M436.2,685.2c-5.3,1-10.7,2-16,3"/>
<path fill="none" stroke="#000000" stroke-miterlimit="10" d="M468.2,728.2c54.7,19.7,82.6,14.3,98,3c21.7-15.8,27.9-28.7,57-78
	c13.9-23.6,28-41.4,38-53"/>
<path fill="none" stroke="#000000" stroke-miterlimit="10" d="M557.2,578.2c21-5.4,39.1,0.5,48,4c18.2,7.1,31.3,16.8,56,18
	c2.6,0.1,4.7,0.1,6,0"/>
<path fill="none" stroke="#000000" stroke-miterlimit="10" d="M463.2,687.2c5.4,0.2,12.9,0.2,21.7-1c7.2-1,21-3.5,39.3-12
	c28.4-13.2,31.8-24.2,61-38c9.6-4.5,17.8-7.4,23-9"/>
<path fill="none" stroke="#000000" stroke-miterlimit="10" d="M485.2,686.2c9.4,8.3,22.3,17.6,39,25c5.6,2.5,10.9,4.4,16,6"/>
<path fill="none" stroke="#000000" stroke-miterlimit="10" d="M517.2,677.2c0.2-5.2,1-12.6,4-21c3.2-9.1,7.7-15.7,11-20"/>
<path fill="none" stroke="#000000" stroke-miterlimit="10" d="M538.2,667.2c5.6,2.9,13.8,6.3,24,8c6.9,1.2,13.1,1.3,18,1"/>
<path fill="none" stroke="#000000" stroke-miterlimit="10" d="M422.2,534.2c1,1.4,2.6,4.3,5,6c3.3,2.3,5,3,7,3c0,0-2.5,2.7-4,7
	c-1.1,3.1-2.1,7-2,9"/>
<path fill="none" stroke="#000000" stroke-miterlimit="10" d="M649,942c1,1.4,5,8,7,11c2.3,3.4,5,3,7,3c0,0-5.5,2.7-7,7
	c-1.1,3.1-4.1,8-4,10"/>
<g>
	<g>
		<path d="M1494.2,443c1.9,0,1.9-3,0-3S1492.3,443,1494.2,443L1494.2,443z"/>
	</g>
</g>
<g transform="translate(0.000000,616.000000) scale(0.100000,-0.100000)">
	<path fill="none" stroke="#000000" stroke-width="3" stroke-miterlimit="10" d="M8776.1,4157.7c-35-22-100-104-143-182
		c-87-155-126-378-84-473c24-55,54-67,101-43c40,21,94,103,121,185c23,69,18,85-21,79c-21-3-24-9-25-55c-3-59-33-136-71-175
		c-37-39-58-36-77,12c-59,147,61,505,207,624c38,30,39,30,53,11c31-43,37-96,28-275c-16-326-7-406,56-469c56-56,120-49,170,20l30,42
		v-70c0-200-40-416-101-542c-75-154-224-279-355-296c-132-18-237,71-265,226c-21,118,25,274,102,344c47,42,80,45,108,9
		c33-42,41-89,38-231c-1-72,0-133,3-136c15-14,48-15,66-3c17,13,19,27,19,138c0,143-16,199-71,247c-41,36-71,46-120,37
		c-117-22-217-243-184-408c21-107,63-170,142-214c47-26,62-29,133-28c99,1,171,27,258,92c158,121,258,320,296,596
		c16,117,34,508,28,621s-12,135-37,135c-38,0-44-25-50-228c-6-174-9-203-29-247c-52-115-104-147-138-82c-15,28-16,58-12,247
		c7,374,2,419-56,477C8858.1,4180.7,8822.1,4185.7,8776.1,4157.7z"/>
	<path fill="none" stroke="#000000" stroke-width="3" stroke-miterlimit="10" d="M9471.1,3966.7c-42-22-80-74-80-111
		c0-14-13-51-30-81c-36-67-70-203-70-283c0-78,17-132,56-172c26-28,39-34,73-34c78,0,120,37,180,157c40,80,77,191,91,274
		c10,59,16,70,68,124c36,38,58,54,60,45c1-8-18-87-43-175c-83-289-72-405,35-405c33,0,48,7,84,40l43,40l5-72c5-82,31-143,75-178
		c23-18,38-21,85-18c73,5,120,41,161,122c49,97,75,311,37,311c-11,0-17-23-26-90c-20-164-69-276-134-310c-113-59-131,59-61,414
		c44,226,44,241-4,241c-43,0-66-54-100-245c-14-77-23-98-57-143c-41-53-86-92-107-92s-10,72,44,298c60,244,62,280,20,308
		c-33,21-59,11-122-49c-41-39-53-46-53-31c-1,38-38,103-69,118C9591.1,3991.7,9514.1,3989.7,9471.1,3966.7z M9628.1,3940.7
		c23-26,43-83,43-122c0-28-50-70-101-83c-32-9-46-8-74,6c-39,18-43,33-19,69c21,32,12,55-21,55c-29,0-30,2-9,41c19,38,87,71,129,64
		C9593.1,3967.7,9616.1,3954.7,9628.1,3940.7z M9661.1,3732.7c0-35-46-173-86-254c-51-106-110-176-145-171c-81,12-88,178-17,371
		c18,52,24,58,42,51c45-15,122-15,157-1C9655.1,3747.7,9661.1,3748.7,9661.1,3732.7z"/>
	<path fill="none" stroke="#000000" stroke-width="3" stroke-miterlimit="10" d="M11626.1,3841.7c-89-22-147-58-230-141
		c-123-124-209-284-272-508c-31-110-24-106-136-82c-89,19-179,68-247,135c-66,65-105,140-119,229c-12,73-19,84-52,79
		c-22-3-24-8-24-58c0-78,42-158,124-241c101-101,199-148,348-171c69-10,74-12,69-32c-20-72-59-318-74-469l-18-177l-56-82
		c-70-103-99-131-130-126c-38,5-58,59-58,156c0,96,18,191,66,348c43,145,51,189,32,197c-23,8-35-4-62-63c-19-41-27-50-32-37
		c-3,10-20,25-36,33c-81,42-215-42-283-176c-34-68-59-198-52-274c4-49,0-74-25-145c-42-119-71-173-113-210c-28-24-40-29-50-21
		c-47,39-14,244,121,740c48,177,23,280-68,280c-32,0-46-7-81-43c-54-54-101-121-153-221l-41-78l1,105c1,93-2,109-20,134
		c-15,20-31,29-57,31c-56,5-114-54-177-181l-50-102l6,95c12,189-29,361-95,394c-122,64-260-67-291-276c-16-108,9-238,46-238
		c13,0,15,6,10,28c-4,15-9,70-13,123c-5,82-2,108,16,167c24,81,69,145,123,176l37,21l24-23c14-13,30-43,36-67c23-92,10-404-30-728
		c-13-107-10-117,39-117c31,0,38,22,61,191c17,124,26,161,62,245c24,54,57,124,75,154c36,62,100,128,111,116c5-4,8-60,7-124
		c-1-89-8-147-29-242c-16-69-29-138-29-155c-1-26,3-30,30-33c17-2,36,3,42,10c6,8,20,56,31,108c45,203,253,541,311,505
		c22-13,4-130-44-293c-121-410-133-625-41-712c33-31,68-20,126,39c35,37,53,68,77,135c18,48,32,94,32,102c0,20,12,17,39-11
		c17-19,33-25,65-25c47,0,75,23,137,115l34,50l7-50c11-79,37-135,72-156c66-40,120-15,185,85c24,37,45,65,47,63s-1-94-6-204
		c-6-111-7-208-4-217c8-21,47-30,72-17c17,9,21,25,26,123c22,366,25,383,104,533c42,79,114,161,132,150c30-18-24-227-82-325
		c-24-40-42-58-66-66c-17-5-37-15-42-20c-16-16,24-184,57-246c35-65,69-90,131-96c44-4,52-1,84,27c39,34,95,135,124,221
		c11,35,19,48,21,35c24-158,75-217,184-217c105,0,207,99,308,299c34,68,35,73,23,73c-5,0-28-33-52-72c-104-175-203-278-267-278
		c-30,0-61,35-75,85c-13,44-15,185-4,255c7,45,7,45,67,64c158,49,300,220,286,344c-7,64-38,92-101,92c-143,0-278-166-341-415
		c-69-275-159-469-226-490c-43-14-56,12-127,256l-19,66l35,19c80,43,160,182,169,293c5,58,2,70-17,94c-17,21-30,27-61,27
		c-52,0-106-49-165-150l-45-75l6,60c12,117,46,351,64,430l17,79l65,12c305,58,565,285,608,531
		C11899.1,3784.7,11790.1,3883.7,11626.1,3841.7z M11792.1,3787.7c124-139-26-436-296-587c-72-40-184-81-248-90l-46-7l24,88
		c47,178,92,284,172,408C11522.1,3791.7,11709.1,3880.7,11792.1,3787.7z M11931.1,2855.7c29-15,43-81,30-132c-15-58-69-138-122-181
		c-48-39-155-93-166-83c-9,9,34,150,67,222c31,67,88,136,136,166C11911.1,2868.7,11907.1,2868.7,11931.1,2855.7z M10720.1,2789.7
		c26-33,27-75,1-148c-10-31-24-84-31-117c-9-46-26-82-73-151c-34-50-71-98-83-105c-20-13-23-12-34,9c-32,59,8,310,67,419
		c29,53,95,119,118,119C10693.1,2815.7,10709.1,2803.7,10720.1,2789.7z"/>
	<path fill="none" stroke="#000000" stroke-width="3" stroke-miterlimit="10" d="M9007.1,2334.7c-73-63-102-190-121-529
		c-15-260-25-323-65-387c-24-40-34-41-56-7c-14,20-19,64-25,217c-4,106-11,224-15,262c-12,129-51,185-127,185c-34,0-46-6-77-39
		c-39-40-64-96-75-164l-6-39l-35,36c-29,30-42,36-75,36c-22,0-49-4-59-10c-18-9-42-64-55-125l-7-30l-19,37c-41,79-121,103-172,52
		c-62-62-80-354-22-354c13,0,14,7,8,38c-22,101,1,252,44,298c25,27,26,27,40,8c27-36,72-228,99-423c8-58,17-114,20-124
		c7-23,40-40,64-32c26,8,26,35-5,223c-29,176-30,212-10,306c14,68,36,106,61,106c23,0,54-108,70-243c9-73,20-140,25-149
		c23-42,89-28,89,20c0,15-9,79-20,142c-23,131-17,222,21,311c20,46,68,99,90,99c20,0,32-62,45-245c7-105,20-224,29-265
		c28-134,82-196,146-169c67,27,96,145,109,439c10,226,19,291,51,393c22,70,78,145,98,133c21-13,23-82,7-229c-28-270-31-346-12-409
		c20-72,60-108,117-108c56,0,75,13,106,73c24,46,28,49,31,27c9-58-6-339-22-405l-16-70h-173c-139,0-184-4-232-18
		c-169-53-265-155-265-282c0-49,4-60,28-85c36-35,98-53,183-52c185,3,368,129,468,322l41,77l77,6c80,5,214,44,217,62
		c2,19-44,16-101-5c-50-19-183-40-183-29c0,3,11,48,25,102c38,149,47,282,43,595c-2,233-6,284-17,292c-22,13-48-5-54-39
		c-4-16-9-107-13-203l-7-173l-44-82c-50-92-75-110-105-73c-23,28-23,84-2,375c13,174,14,229,4,264
		C9146.1,2366.7,9074.1,2393.7,9007.1,2334.7z M9224.1,1189.7l46-7l-20-49c-66-167-218-297-384-327c-122-23-215,23-215,104
		c0,125,112,237,270,271C8981.1,1194.7,9152.1,1199.7,9224.1,1189.7z"/>
	<path fill="none" stroke="#000000" stroke-width="3" stroke-miterlimit="10" d="M9677.1,2220.7c-43-44-74-246-57-372
		c32-227,149-406,320-491c69-34,82-37,180-40c94-4,116-1,184,22c43,14,79,26,81,26s5-115,8-256c6-281,5-276,68-272c35,3,35,4,42,58
		c16,130,124,394,183,450l25,23v-54c0-30-9-112-20-184c-42-277-20-385,77-385c67,0,149,103,208,263l18,47l24-35c28-41,51-55,93-55
		s66,13,121,67l47,45l7-31c4-18,24-50,44-72c57-59,86-55,167,23c35,33,64,57,64,51s11-22,25-37c36-39,97-37,148,5
		c70,58,145,185,192,326l27,81l44,4c24,2,44,2,44,1c0-2-13-24-29-50c-108-176-164-460-111-563c35-69,87-87,155-54
		c44,20,112,94,155,167c19,31,38,57,42,57c3,0,11-15,18-34c17-52,54-81,105-81c53,0,80,23,124,105c47,87,104,241,93,252
		c-12,12-25-6-47-67c-28-78-103-220-130-245c-57-54-79,13-72,225c3,120,12,187,41,335c21,102,39,186,40,187s25-4,53-11
		c135-36,250-28,353,24c63,32,170,124,170,146c0,31-43,11-98-45c-78-81-162-121-254-121c-58,0-205,23-216,34c-2,2,6,47,17,100
		c25,115,25,112,5,120c-28,11-43-13-75-115l-30-98l-37-6c-68-10-137-35-167-59c-31-25-28-50,3-28c74,54,200,84,188,45
		c-15-50-69-289-81-362c-8-46-15-123-15-172c0-81-3-93-31-141c-51-87-97-145-141-177c-65-48-89-40-112,33c-8,25,10,168,34,260
		c10,41,48,139,84,217c37,78,66,145,66,149c0,16-32,19-79,8c-27-6-61-8-75-4c-24,6-27,10-21,35c14,63,22,194,15,228
		c-18,77-81,104-148,63c-123-75-96-269,46-332c23-10,42-22,42-26c0-13-27-96-50-152c-49-126-162-270-210-270c-49,0-52,117-10,336
		c17,85,28,159,25,164c-3,6-17,10-31,10c-19,0-29-10-46-44l-21-44l-28,20c-38,28-115,21-162-15c-56-42-97-133-110-243l-12-95l-51-49
		c-55-52-95-70-118-51c-21,18-36,91-36,178v78l47,35c59,44,128,144,149,218c40,134,14,202-76,202c-61,0-105-30-146-98
		c-63-104-99-322-74-450c11-62,10-72-10-131c-45-135-128-261-171-261c-30,0-33,42-15,224c27,283,20,380-29,392c-42,10-58,0-101-65
		c-38-56-59-99-116-241c-14-33-15-22-22,158l-7,193l69,74c131,143,202,309,202,473c0,106-18,149-72,175c-103,51-207-48-257-244
		c-23-91-41-265-41-401v-98l-38-19c-123-63-263-68-373-14c-169,84-275,269-295,518c-5,63-1,101,16,180c35,159,36,165,12,165
		C9702.1,2235.7,9685.1,2228.7,9677.1,2220.7z M10672.1,2125.7c10-6,25-23,33-39c66-126-25-420-174-566l-40-39v59
		c0,235,53,489,117,565C10635.1,2138.7,10643.1,2140.7,10672.1,2125.7z M11930.1,1764.7c10-11,22-36,25-54c6-30-11-214-20-224
		s-44,34-64,82c-26,60-24,148,3,191C11895.1,1790.7,11904.1,1791.7,11930.1,1764.7z M11216.1,1655.7c15-16,17-31,12-85
		c-6-86-50-174-117-240l-52-50l7,55c17,138,62,286,99,323C11187.1,1680.7,11194.1,1679.7,11216.1,1655.7z M11536.1,1414.7
		c21-22,21-30,10-214l-8-119l-63-64c-34-35-67-61-73-58c-24,15-33,87-22,190c16,147,37,212,84,264
		C11489.1,1440.7,11512.1,1441.7,11536.1,1414.7z"/>
	<path fill="none" stroke="#000000" stroke-width="3" stroke-miterlimit="10" d="M9712.1,1286.7c-45-45-53-207-16-322l18-57l-39-47
		c-55-66-185-168-274-214c-128-67-235-94-375-94c-92,0-139,5-204,22c-139,37-213,80-319,188c-87,88-119,108-129,77c-2-6,34-47,81-92
		c322-309,858-284,1206,58c34,34,63,60,65,58c10-10,60-158,85-253c42-158,53-257,48-408c-4-108-10-146-32-210
		c-50-149-139-255-263-314c-129-62-263-45-356,45c-50,48-74,95-86,168c-9,59-1,147,19,199c18,47,69,113,104,134c49,31,89,27,120-9
		c33-40,40-84,31-178c-15-139-13-155,17-170c61-29,88,24,88,169c0,167-55,240-181,241c-221,1-326-385-152-559
		c165-165,470-110,629,113c56,79,90,155,116,263c18,75,20,108,15,256c-6,190-17,248-93,476l-45,136l32,78c27,68,31,88,27,151
		c-4,88-22,114-80,114C9745.1,1305.7,9724.1,1298.7,9712.1,1286.7z M9808.1,1228.7c13-31,14-48,5-93c-6-30-16-68-23-85l-12-30l-7,25
		c-5,14-8,59-9,100C9761.1,1267.7,9778.1,1298.7,9808.1,1228.7z"/>
	<path fill="none" stroke="#000000" stroke-width="3" stroke-miterlimit="10" d="M10966.1,845.7c-21-33,58-192,134-269l53-55l-12-51
		c-33-140-41-198-41-287c0-97,0-98-40-158c-49-73-86-105-105-89c-32,27-27,170,16,389c10,52,15,99,11,103c-5,5-19,7-32,5
		c-32-4-53-52-79-179c-27-134-83-326-113-392c-27-59-86-127-111-127c-49,0-44,106,21,445c49,255,51,297,12,336c-42,42-94,14-160-88
		l-44-67l-7,90c-8,108-19,141-53,156c-56,25-105-35-167-206l-32-91l-12,76c-15,95-20,110-45,137c-30,33-81,30-113-9
		c-40-47-76-197-49-206c7-3,14,13,18,44c11,78,64,181,85,168c16-10,21-170,8-307c-7-79-13-170-13-203c0-60,0-60,31-63
		c45-4,61,17,68,95c4,37,12,95,17,128c28,171,154,457,175,400c11-28-5-241-30-390c-24-150-22-175,19-175c23,0,55,23,55,40
		c0,5,7,58,16,117c13,88,23,122,56,185c22,43,58,98,81,124c40,46,42,46,47,23c8-31-10-142-56-349c-42-193-52-298-32-354
		c28-83,112-105,173-46c43,42,87,126,115,219l23,73l16-48c12-38,24-53,52-68c32-17,40-18,68-6c18,7,51,37,74,68l41,54l16-59
		c40-144,115-233,198-233c42,0,50,4,93,49c33,34,65,86,103,166c31,64,56,120,56,126c0,5,4,9,9,9s11-17,15-38c11-71,71-173,143-245
		c304-304,814-169,1008,268c14,33,42,114,61,180c28,99,32,122,21,132c-29,29-67-23-67-93c0-12-11-61-25-108c-78-269-251-452-486-512
		c-81-21-202-14-279,15c-65,25-159,96-199,151c-41,57-74,185-75,294l-1,89l63,13c35,7,78,22,97,34c112,69,184,250,123,308
		c-72,67-188,52-270-34c-66-69-109-180-127-324c-7-63-21-100-84-230c-96-199-149-256-208-226c-37,18-59,68-70,162
		c-17,133-1,434,27,528c5,16,13,17,57,12c85-11,151,15,218,83c99,101,122,209,59,273c-25,25-35,28-92,28c-41,0-78-7-106-20
		c-62-28-135-109-178-195c-21-42-42-74-48-72s-29,30-51,63c-39,57-52,90-75,182c-9,35-15,42-35,42
		C10983.1,855.7,10969.1,851.7,10966.1,845.7z M11536.1,829.7c22-9,45-57,45-97c0-83-105-212-194-237c-46-13-110-7-121,10
		c-9,14,13,85,47,158C11374.1,792.7,11462.1,857.7,11536.1,829.7z M11941.1,575.7c52-52,29-152-58-240c-56-57-102-80-159-80
		c-29,0-30,21-4,123c37,144,92,217,162,217C11907.1,595.7,11928.1,588.7,11941.1,575.7z"/>
	<path fill="none" stroke="#000000" stroke-width="3" stroke-miterlimit="10" d="M10941.1,540.7c-16-19-5-35,24-35c32,0,56,28,35,41
		S10955.1,557.7,10941.1,540.7z"/>
</g>
</svg>
